<?xml version="1.0" encoding="UTF-8" standalone="no"?>
<svg xmlns:dc="http://purl.org/dc/elements/1.1/" xmlns:cc="http://creativecommons.org/ns#" xmlns:rdf="http://www.w3.org/1999/02/22-rdf-syntax-ns#" xmlns:svg="http://www.w3.org/2000/svg" xmlns="http://www.w3.org/2000/svg" xmlns:xlink="http://www.w3.org/1999/xlink" xml:space="preserve" enable-background="new 0 0 283.465 283.465" viewBox="0 0 100 100" height="100" width="100" y="0px" x="0px" id="Ebene_1_Kopie" version="1.1">
    <script><![CDATA[
    document.addEventListener ('DOMContentLoaded', init);
    function init () {
        var shape = document.getElementById ('shape');
        var anim = document.getElementById ('animation');
        console.log (shape, anim);
        shape.onmouseover = function (ev) {
            anim.beginElement ();
        };
        shape.onmouseout = function () {
            
        }
    }
    ]]>
    </script>

    <path 
        style="fill:none;stroke:#f5cdd2;stroke-width:8;stroke-linecap:round;stroke-linejoin:round;stroke-miterlimit:10"
        id="shape"
        d="m 67.320227,14.877942 c 3.22593,1.529055 11.343497,0.650118 13.939035,3.101203 2.595538,2.451084 2.182369,10.605635 3.893445,13.738819 1.711077,3.133186 8.794952,7.193497 9.454075,10.702085 0.659123,3.508588 -4.468261,9.862903 -4.925612,13.403448 -0.45735,3.540546 2.887035,10.989204 1.35798,14.215135 -1.529054,3.225929 -9.412168,5.352877 -11.863253,7.948415 C 76.724812,80.582585 75.052265,88.574456 71.91908,90.285532 68.785895,91.996609 61.158133,89.083768 57.649545,89.74289 54.140957,90.402013 48.090334,95.884474 44.549788,95.427124 41.009243,94.969774 36.550379,88.12975 33.324449,86.600695 30.098519,85.07164 21.980952,85.950577 19.385414,83.499493 16.789876,81.048408 17.203045,72.893858 15.491969,69.760673 13.780892,66.627488 6.6970169,62.567177 6.0378939,59.058589 5.378771,55.550001 10.506156,49.195686 10.963506,45.65514 11.420856,42.114595 8.0764714,34.665936 9.6055261,31.440006 c 1.5290549,-3.22593 9.4121689,-5.352878 11.8632529,-7.948415 2.451085,-2.595538 4.123632,-10.587409 7.256818,-12.298486 3.133185,-1.711076 10.760947,1.201765 14.269534,0.542642 3.508588,-0.659123 9.559211,-6.1415832 13.099757,-5.6842331 3.540546,0.45735 7.99941,7.2973741 11.225339,8.8264281 z"
        stroke-miterlimit="10"
        >
    </path>
    <animate
        id="animation"
        xlink:href="#shape"
        attributeName="d"
        from="m 67.320227,14.877942 c 3.22593,1.529055 11.343497,0.650118 13.939035,3.101203 2.595538,2.451084 2.182369,10.605635 3.893445,13.738819 1.711077,3.133186 8.794952,7.193497 9.454075,10.702085 0.659123,3.508588 -4.468261,9.862903 -4.925612,13.403448 -0.45735,3.540546 2.887035,10.989204 1.35798,14.215135 -1.529054,3.225929 -9.412168,5.352877 -11.863253,7.948415 C 76.724812,80.582585 75.052265,88.574456 71.91908,90.285532 68.785895,91.996609 61.158133,89.083768 57.649545,89.74289 54.140957,90.402013 48.090334,95.884474 44.549788,95.427124 41.009243,94.969774 36.550379,88.12975 33.324449,86.600695 30.098519,85.07164 21.980952,85.950577 19.385414,83.499493 16.789876,81.048408 17.203045,72.893858 15.491969,69.760673 13.780892,66.627488 6.6970169,62.567177 6.0378939,59.058589 5.378771,55.550001 10.506156,49.195686 10.963506,45.65514 11.420856,42.114595 8.0764714,34.665936 9.6055261,31.440006 c 1.5290549,-3.22593 9.4121689,-5.352878 11.8632529,-7.948415 2.451085,-2.595538 4.123632,-10.587409 7.256818,-12.298486 3.133185,-1.711076 10.760947,1.201765 14.269534,0.542642 3.508588,-0.659123 9.559211,-6.1415832 13.099757,-5.6842331 3.540546,0.45735 7.99941,7.2973741 11.225339,8.8264281 z"
        to  ="m 68.694119,11.979369 c 3.031696,1.43699 8.639045,5.270736 11.078305,7.57424 2.43926,2.303504 6.587472,7.682378 8.195524,10.626913 1.608052,2.944536 3.891073,9.342018 4.51051,12.639354 0.619437,3.297335 0.813789,10.087193 0.383976,13.414561 -0.429813,3.327369 -2.343156,9.844967 -3.780146,12.876664 -1.43699,3.031695 -5.270735,8.639043 -7.574239,11.078303 -2.303505,2.43926 -7.68238,6.587473 -10.626915,8.195525 -2.944536,1.608052 -9.342017,3.891073 -12.639351,4.51051 -3.297336,0.619437 -10.087196,0.813788 -13.414565,0.383975 C 41.49985,92.849601 34.982253,90.936259 31.950558,89.499269 28.918861,88.062279 23.311512,84.228533 20.872252,81.925029 18.432992,79.621525 14.28478,74.242651 12.676728,71.298116 11.068676,68.35358 8.785655,61.956097 8.1662179,58.658762 7.5467809,55.361427 7.3524296,48.571569 7.7822426,45.244201 8.2120557,41.916832 10.125399,35.399233 11.562389,32.367537 c 1.436989,-3.031696 5.270734,-8.639043 7.574238,-11.078303 2.303505,-2.43926 7.68238,-6.587473 10.626916,-8.195526 2.944535,-1.608052 9.342016,-3.8910723 12.639351,-4.5105091 3.297335,-0.619437 10.087195,-0.8137884 13.414564,-0.3839754 3.327368,0.4298129 9.844965,2.3431555 12.876661,3.7801455 z"
        dur="500ms"
        repeatCount="1"
        fill="freeze"
        begin="indefinite"
    />
</svg>
