<svg xmlns="http://www.w3.org/2000/svg" height="10" width="100" version="1.1" viewBox="0 0 100 10">
	<g stroke-width=".20956" fill="#fff">
		<path d="m7.3296 9.0532c0 0.45265-0.36799 0.82064-0.82085 0.82064s-0.82064-0.36799-0.82064-0.82064v-3.4102h-4.0466v3.41c0 0.45265-0.36799 0.82064-0.82085 0.82064s-0.82064-0.36778-0.82064-0.82043v-8.1068c0-0.45265 0.36799-0.82064 0.82085-0.82064s0.82085 0.36799 0.82085 0.82064v3.1971h4.0468v-3.1971c0-0.45265 0.36778-0.82064 0.82064-0.82064s0.82085 0.36799 0.82085 0.82064v8.1069z"/>
		<path d="m14.137 7.2845-0.864 2.0519c-0.12741 0.29716-0.39628 0.53732-0.76406 0.53732-0.43861 0-0.8066-0.36799-0.8066-0.80639 0-0.0851 0.0142-0.19804 0.0566-0.29716l3.3393-8.1352c0.0849-0.19804 0.3112-0.50944 0.75002-0.50944 0.43861 0 0.66494 0.31141 0.75002 0.50944l3.3394 8.1352c0.0425 0.0991 0.0566 0.21208 0.0566 0.29716 0 0.4384-0.36778 0.80639-0.8066 0.80639-0.36778 0-0.63686-0.24016-0.76406-0.53732l-0.862-2.052zm1.7119-4.4714-1.1603 2.9716h2.3205z"/>
		<path d="m24.085 6.6479v-5.7016c0-0.45265 0.36778-0.82064 0.82064-0.82064s0.82064 0.36799 0.82064 0.82064v5.7017c0 0.86297 0.32545 1.8678 1.9244 1.8678s1.9244-1.0048 1.9244-1.8678v-5.7016c0-0.45265 0.36778-0.82064 0.82064-0.82064s0.82085 0.36799 0.82085 0.82064v5.7017c0 1.6128-0.70748 3.3111-3.5657 3.3111s-3.5659-1.6985-3.5659-3.3113z"/>
		<path d="m40.074 1.6817v7.3715c0 0.45265-0.36779 0.82064-0.82064 0.82064-0.45286 0-0.82085-0.36799-0.82085-0.82064v-7.3715h-2.165c-0.39628 0-0.72152-0.32524-0.72152-0.72131s0.32545-0.72152 0.72152-0.72152h5.9712c0.39628 0 0.72152 0.32545 0.72152 0.72152s-0.32545 0.72131-0.72152 0.72131z"/>
		<path d="m52.357 8.2326c0.4669 0 0.79214 0.3397 0.79214 0.76406 0 0.43882-0.32546 0.76406-0.79214 0.76406h-4.1883c-0.4669 0-0.8066-0.3397-0.8066-0.79235v-8.022c0-0.45265 0.36779-0.82064 0.82064-0.82064 0.45286 0 0.82064 0.36799 0.82064 0.82064v7.2862z"/>
		<path d="m58.923 9.0532c0 0.45265-0.36797 0.82064-0.82064 0.82064-0.45265 0-0.82064-0.36799-0.82064-0.82064v-8.1068c0-0.45265 0.36798-0.82064 0.82064-0.82064s0.82064 0.36799 0.82064 0.82064z"/>
		<path d="m65.801 4.2425h2.674c0.39628 0 0.72152 0.32545 0.72152 0.72152s-0.32546 0.72152-0.72152 0.72152h-2.674v2.6034h3.7497c0.41011 0 0.73556 0.32587 0.73556 0.73598 0 0.41053-0.32546 0.73598-0.73556 0.73598h-4.5703c-0.45307 0-0.82106-0.36799-0.82106-0.82064v-7.8808c0-0.45265 0.36798-0.82064 0.82106-0.82064h4.4142c0.41053 0 0.73598 0.32545 0.73598 0.73556 0 0.41032-0.32546 0.73556-0.73598 0.73556h-3.5936z"/>
		<path d="m75.636 9.7609c-0.45266 0-0.82064-0.36799-0.82064-0.82064v-7.8808c0-0.45265 0.36797-0.82064 0.82064-0.82064h2.547c2.1365 0 2.9007 1.1599 2.9007 2.4613 0 0.9336-0.46711 1.6413-1.0474 1.9242 1.0612 0.41053 1.4717 1.1744 1.4717 2.2784 0 1.7259-1.0331 2.8582-3.0705 2.8582zm0.82064-5.6318h1.7264c0.89147 0 1.259-0.50923 1.259-1.2169 0-0.73556-0.36756-1.202-1.259-1.202h-1.727zm0 4.1598h1.981c1.0044 0 1.4007-0.53732 1.4007-1.3862 0-0.86339-0.46669-1.3869-1.4007-1.3869h-1.982z"/>
		<path d="m87.466 4.2425h2.6744c0.39628 0 0.72152 0.32545 0.72152 0.72152s-0.32545 0.72152-0.72152 0.72152h-2.6744v2.6034h3.7497c0.41053 0 0.73598 0.32587 0.73598 0.73598 0 0.41053-0.32546 0.73598-0.73598 0.73598h-4.5703c-0.45265 0-0.82064-0.36799-0.82064-0.82064v-7.8808c0-0.45265 0.36798-0.82064 0.82064-0.82064h4.4146c0.41053 0 0.73598 0.32545 0.73598 0.73556 0 0.41032-0.32545 0.73556-0.73598 0.73556h-3.594z"/>
		<path d="m100 2.1907c0 1.4715-0.7781 2.165-2.1084 2.165-1.2873 0-2.0797-0.69344-2.0797-2.165 0-1.4707 0.79235-2.1499 2.0797-2.1499 1.3303 0 2.1084 0.67919 2.1084 2.1499zm-0.48094 0c0-1.2444-0.59432-1.7538-1.613-1.7538-1.047 0-1.613 0.50923-1.613 1.7538 0 1.2167 0.56602 1.7547 1.613 1.7547 1.0187 0 1.613-0.53794 1.613-1.7547zm-2.0093 0.28291v0.62282c0 0.11295-0.0991 0.21208-0.21249 0.21208-0.11297 0-0.21207-0.0991-0.21207-0.21208v-1.8248c0-0.0991 0.0847-0.18357 0.1838-0.18357h0.82064c0.43882 0 0.70769 0.33907 0.70769 0.69281 0 0.42436-0.25463 0.69302-0.56603 0.69302l0.45265 0.50944c0.0426 0.0566 0.0426 0.0991 0.0426 0.1272 0 0.11337-0.0847 0.19804-0.19805 0.19804-0.0708 0-0.12722-0.0283-0.16996-0.0847l-0.5518-0.75002h-0.29696zm0.52348-0.36757c0.22632 0 0.3397-0.11337 0.3397-0.32545 0-0.18378-0.11339-0.32524-0.3397-0.32524h-0.52348v0.65069z"/>
	</g>
</svg>
