<!-- Generator: Adobe Illustrator 16.0.4, SVG Export Plug-In . SVG Version: 6.00 Build 0)  -->
<svg id="Ebene_3_Kopie" xmlns:rdf="http://www.w3.org/1999/02/22-rdf-syntax-ns#" xmlns="http://www.w3.org/2000/svg" enable-background="new 0 0 566.93 566.93" xml:space="preserve" height="566.93px" viewBox="0 0 566.93 566.93" width="566.93px" version="1.1" y="0px" x="0px" xmlns:cc="http://creativecommons.org/ns#" xmlns:dc="http://purl.org/dc/elements/1.1/"><metadata><rdf:RDF><cc:Work rdf:about=""><dc:format>image/svg+xml</dc:format><dc:type rdf:resource="http://purl.org/dc/dcmitype/StillImage"/><dc:title/></cc:Work></rdf:RDF></metadata>
	<path d="m237.79 556.7c150.27 25.146 292.48-76.288 317.62-226.56 25.147-150.27-76.287-292.48-226.56-317.62-150.27-25.15-292.47 76.284-317.62 226.56-25.144 150.27 76.29 292.47 226.56 317.62" fill="#F5CDD2"/>
<line y2="351.78" x1="213.04" x2="353.61" stroke="#fff" stroke-linecap="round" y1="328.26" stroke-width="9.729" fill="none"/>
<path stroke-linejoin="round" d="m238.48 446.02c7.438 0.034 13.786 6.069 15.473 14.083 4.203-7.027 12.17-10.668 19.214-8.278 8.107 2.749 11.915 12.432 8.509 21.627-3.306 10.543-34.053 26.268-34.053 26.268s-23.4-24.785-24.229-36.02c-0.22-9.8 6.53-17.72 15.09-17.68z" stroke="#fff" stroke-linecap="round" stroke-width="9.729" fill="none"/>
<g fill="#fff">
	<path d="m191.35 150.72l-20.711-3.466c-2.589-0.433-4.399-2.972-3.966-5.562 0.433-2.589 2.972-4.399 5.561-3.966l20.711 3.466c2.589 0.433 4.399 2.972 3.966 5.561-0.44 2.6-2.97 4.41-5.56 3.97z"/>
	<path d="m250.15 130.76c-1.054 0.569-2.263 0.792-3.608 0.567-3.106-0.52-5.263-3.542-4.743-6.649 0.346-2.071 1.678-3.658 3.283-4.347l16.523-7.136c1.261-0.534 2.278-0.896 3.832-0.635 3.21 0.537 5.452 3.68 4.915 6.889l-9.965 59.545c-0.537 3.21-3.68 5.453-6.89 4.916-3.21-0.538-5.452-3.681-4.915-6.891l8.249-49.292-6.68 3.02z"/>
	<path d="m335.52 172.83c-2.877 17.19-14.601 23-29.824 20.452-12.943-2.167-20.309-10.957-22.824-18.191-0.363-1.018-0.431-1.881-0.275-2.813 0.503-3.003 3.406-5.072 6.408-4.57 1.762 0.294 3.296 1.296 4.383 3.714 2.93 6.665 6.586 10.257 14.041 11.505 8.078 1.352 14.657-2.338 16.286-12.072 1.612-9.631-3.407-15.261-11.485-16.612-6.213-1.04-9.666-0.128-13.844 1.941-1.502 0.707-3.04 1.621-5.317 1.24-3.004-0.503-5.177-3.421-4.675-6.425 0.104-0.621 0.312-1.225 0.502-1.726l9.666-25.954c0.744-1.898 2.988-3.865 5.889-3.379l31.066 5.199c2.9 0.485 4.883 3.266 4.398 6.165s-3.266 4.882-6.166 4.397l-27.027-4.523-4.962 13.116c2.571-0.741 6.923-1.29 12.202-0.406 15.21 2.54 24.41 11.85 21.55 28.94z"/>
	<path d="m414.64 154.24c-1.561 9.319-6.967 16.187-18.875 14.193-11.805-1.975-14.58-10.211-13.02-19.531 1.594-9.527 6.863-16.204 18.668-14.229 11.91 1.99 14.82 10.04 13.23 19.57zm26.67-7.36c-0.121 0.725-0.449 1.416-0.865 1.984l-42.896 56.589c-1.07 1.311-2.59 2.121-4.766 1.757-2.795-0.468-4.521-2.885-4.07-5.578 0.121-0.725 0.33-1.329 0.883-2.088l42.862-56.381c0.725-1.157 2.401-2.26 4.679-1.878 2.82 0.48 4.65 2.91 4.19 5.6zm-36.09 5.78c0.728-4.351-0.184-8.441-5.258-9.291-5.178-0.866-7.166 2.74-7.895 7.089-0.71 4.246-0.021 8.406 5.156 9.272 5.08 0.85 7.29-2.83 8-7.07zm42.7 46.96c-1.56 9.319-6.966 16.186-18.876 14.193-11.805-1.976-14.578-10.211-13.019-19.531 1.595-9.527 6.862-16.204 18.667-14.229 11.92 2 14.83 10.04 13.23 19.57zm-9.42-1.58c0.728-4.35-0.184-8.44-5.259-9.29-5.177-0.866-7.164 2.74-7.893 7.089-0.711 4.246-0.022 8.407 5.154 9.273 5.08 0.85 7.29-2.82 8-7.07z"/>
	<path d="m102.11 231.64l-3.604 21.54c-0.555 3.313-3.697 5.556-7.011 5.001s-5.557-3.697-5.002-7.012l9.791-58.508c0.555-3.313 3.698-5.556 7.012-5.001l19.778 3.31c13.98 2.339 20.187 13.598 18.229 25.3-1.646 9.837-9.247 18.358-19.396 17.938l12.207 21.204c0.725 1.399 0.827 2.693 0.636 3.833-0.555 3.313-3.696 5.556-7.011 5.001-1.76-0.295-3.486-1.435-4.296-2.954l-14.601-28.525-6.74-1.12zm5.39-32.2l-3.622 21.643 13.979 2.34c6.421 1.074 10.101-3.739 11.019-9.228 0.936-5.592-0.976-11.341-7.707-12.468l-13.67-2.28z"/>
	<path d="m170.58 251.94l-8.829 13.958c-1.296 2.019-3.558 3.449-6.25 2.999-3.211-0.537-5.452-3.68-4.915-6.891 0.104-0.621 0.345-1.433 0.778-2.104l34.404-55.455c0.864-1.346 2.901-3.347 6.112-2.81 3.21 0.537 4.485 3.092 4.863 4.646l14.475 63.634c0.189 0.776 0.155 1.623 0.051 2.244-0.538 3.21-3.68 5.452-6.89 4.915-2.693-0.451-4.367-2.54-4.935-4.871l-3.805-16.072-25.04-4.2zm18-30.63l-12.131 20.325 16.982 2.842-4.85-23.17z"/>
	<path d="m234.96 281.34c-3.314-0.555-5.556-3.697-5.001-7.011l9.652-57.681c0.555-3.313 3.697-5.557 7.011-5.002l18.641 3.119c15.637 2.617 19.806 12.045 18.212 21.571-1.144 6.835-5.428 11.44-10.019 12.802 7.264 4.303 9.331 10.396 7.979 18.475-2.114 12.634-11.06 19.653-25.972 17.158l-20.5-3.44zm7.81-9.76l14.497 2.426c7.353 1.23 10.91-2.219 11.95-8.433 1.057-6.316-1.719-10.721-8.554-11.864l-14.497-2.426-3.4 20.29zm5.09-30.45l12.634 2.114c6.523 1.092 9.839-2.187 10.706-7.363 0.901-5.386-1.219-9.253-7.743-10.345l-12.634-2.114-2.97 17.7z"/>
	<path d="m314.73 276.06l-8.83 13.96c-1.296 2.019-3.557 3.449-6.25 2.999-3.211-0.537-5.453-3.68-4.915-6.891 0.104-0.621 0.347-1.433 0.778-2.104l34.403-55.455c0.864-1.347 2.902-3.347 6.112-2.81s4.486 3.092 4.864 4.646l14.476 63.634c0.188 0.776 0.154 1.623 0.05 2.244-0.538 3.21-3.681 5.452-6.89 4.915-2.693-0.451-4.367-2.54-4.934-4.871l-3.805-16.072-25.07-4.2zm18.01-30.62l-12.131 20.325 16.982 2.842-4.85-23.16z"/>
	<path d="m412.1 250.2l-9.029 53.952c-0.555 3.313-3.697 5.556-7.012 5.001s-5.555-3.697-5-7.012l9.028-53.952-15.845-2.651c-2.898-0.485-4.882-3.266-4.396-6.164 0.484-2.9 3.266-4.884 6.164-4.398l43.701 7.312c2.899 0.485 4.883 3.266 4.397 6.166-0.485 2.898-3.266 4.882-6.165 4.396l-15.84-2.66z"/>
	<path d="m481.07 261.74l-9.029 53.953c-0.555 3.313-3.697 5.556-7.012 5.001s-5.555-3.697-5-7.012l9.028-53.952-15.845-2.651c-2.898-0.485-4.883-3.266-4.397-6.165s3.267-4.883 6.165-4.397l43.701 7.312c2.898 0.485 4.883 3.266 4.396 6.166-0.484 2.898-3.266 4.882-6.164 4.396l-15.85-2.66z"/>
</g>
<g fill="#fff">
	<path d="m96.198 357.57l-3.493 20.872c-0.188 1.125-1.289 1.911-2.415 1.723-0.689-0.115-1.282-0.588-1.555-1.193l-8.12-17.255-2.394 14.302c-0.188 1.125-1.29 1.911-2.415 1.723s-1.911-1.29-1.723-2.415l3.493-20.872c0.188-1.126 1.289-1.911 2.414-1.723 0.727 0.121 1.253 0.545 1.524 1.15l8.139 17.37 2.405-14.374c0.188-1.126 1.29-1.911 2.415-1.723 1.128 0.18 1.914 1.28 1.725 2.41z"/>
	<path d="m101.54 373.54l2.448-14.629c0.194-1.161 1.296-1.946 2.457-1.752 1.162 0.194 1.949 1.296 1.755 2.457l-2.448 14.629c-0.37 2.214 0.033 4.932 4.134 5.617 4.103 0.687 5.369-1.751 5.739-3.965l2.448-14.629c0.194-1.162 1.295-1.947 2.457-1.753 1.161 0.194 1.948 1.296 1.754 2.458l-2.448 14.629c-0.692 4.138-3.237 8.189-10.57 6.963-7.32-1.23-8.41-5.89-7.72-10.03z"/>
	<path d="m132.08 377.23l-1.264 7.551c-0.194 1.161-1.296 1.947-2.457 1.753-1.162-0.194-1.948-1.297-1.754-2.458l3.433-20.509c0.194-1.162 1.296-1.947 2.458-1.753l6.933 1.16c4.9 0.82 7.077 4.767 6.391 8.868-0.577 3.448-3.242 6.436-6.799 6.288l4.277 7.433c0.255 0.49 0.291 0.944 0.224 1.344-0.194 1.161-1.296 1.947-2.457 1.753-0.617-0.103-1.223-0.503-1.507-1.036l-5.118-9.998-2.35-0.38zm1.89-11.29l-1.27 7.587 4.9 0.82c2.25 0.376 3.54-1.311 3.862-3.235 0.328-1.96-0.343-3.975-2.701-4.37l-4.79-0.81z"/>
	<path d="m166.6 390.77c-0.194 1.161-1.295 1.948-2.457 1.753-1.161-0.193-1.948-1.296-1.754-2.457l3.433-20.51c0.194-1.161 1.297-1.947 2.458-1.752l11.326 1.895c1.053 0.177 1.747 1.15 1.57 2.203-0.176 1.053-1.149 1.748-2.202 1.572l-9.221-1.543-1.124 6.715 6.861 1.148c1.016 0.17 1.711 1.145 1.541 2.161s-1.145 1.711-2.16 1.541l-6.861-1.148-1.42 8.43z"/>
	<path d="m186 387.67l2.448-14.629c0.194-1.161 1.295-1.946 2.457-1.752 1.161 0.194 1.948 1.295 1.754 2.457l-2.448 14.629c-0.37 2.214 0.033 4.931 4.135 5.617s5.368-1.751 5.738-3.965l2.448-14.629c0.194-1.162 1.296-1.947 2.457-1.753 1.162 0.194 1.948 1.296 1.754 2.457l-2.448 14.629c-0.692 4.138-3.237 8.19-10.569 6.963-7.32-1.24-8.41-5.9-7.72-10.04zm7.57-20.04c0.225-1.343 0.975-1.814 2.137-1.62 1.161 0.194 1.719 0.885 1.494 2.228-0.207 1.233-0.965 1.741-2.126 1.547-1.15-0.2-1.7-0.92-1.5-2.16zm6.57 1.1c0.225-1.344 0.976-1.814 2.137-1.62 1.162 0.194 1.718 0.885 1.493 2.228-0.207 1.233-0.963 1.741-2.125 1.547-1.15-0.2-1.7-0.92-1.5-2.16z"/>
	<path d="m216.54 391.36l-1.264 7.551c-0.194 1.16-1.295 1.947-2.457 1.753-1.161-0.194-1.948-1.297-1.754-2.458l3.433-20.51c0.194-1.161 1.297-1.946 2.458-1.752l6.934 1.16c4.9 0.82 7.076 4.766 6.39 8.867-0.577 3.449-3.241 6.436-6.799 6.289l4.278 7.433c0.254 0.49 0.29 0.944 0.223 1.344-0.194 1.161-1.295 1.947-2.457 1.753-0.617-0.104-1.222-0.503-1.506-1.036l-5.118-9.999-2.35-0.38zm1.89-11.28l-1.27 7.586 4.901 0.82c2.25 0.377 3.54-1.311 3.862-3.234 0.328-1.96-0.343-3.976-2.702-4.37l-4.79-0.81z"/>
	<path d="m253.08 392.4l10.34-8.27c0.515-0.398 1.096-0.525 1.64-0.435 1.125 0.188 1.881 1.247 1.692 2.373-0.097 0.58-0.388 0.979-0.774 1.288l-8.063 6.263 6.194 12.269c0.198 0.369 0.271 0.829 0.197 1.265-0.188 1.125-1.289 1.911-2.414 1.724-0.871-0.146-1.331-0.745-1.555-1.193l-5.747-11.597-2.433 1.831-1.167 6.971c-0.194 1.16-1.296 1.947-2.457 1.753-1.162-0.194-1.948-1.297-1.754-2.458l3.481-20.8c0.194-1.162 1.295-1.947 2.457-1.753 1.161 0.194 1.948 1.296 1.754 2.457l-1.39 8.31z"/>
	<path d="m271.58 402l2.448-14.629c0.194-1.162 1.296-1.947 2.457-1.753 1.162 0.194 1.948 1.296 1.754 2.457l-2.448 14.629c-0.37 2.214 0.033 4.932 4.136 5.618 4.102 0.687 5.368-1.752 5.738-3.966l2.448-14.629c0.194-1.161 1.296-1.947 2.458-1.753 1.161 0.194 1.947 1.296 1.753 2.458l-2.448 14.629c-0.692 4.138-3.236 8.189-10.569 6.963-7.33-1.24-8.42-5.9-7.73-10.03z"/>
	<path d="m302.12 405.69l-1.263 7.55c-0.194 1.161-1.297 1.947-2.458 1.753-1.162-0.194-1.947-1.297-1.753-2.458l3.432-20.509c0.194-1.162 1.296-1.947 2.458-1.753l6.933 1.16c4.9 0.82 7.076 4.767 6.39 8.868-0.577 3.448-3.24 6.436-6.798 6.288l4.277 7.433c0.255 0.49 0.291 0.944 0.225 1.344-0.194 1.161-1.297 1.947-2.458 1.753-0.617-0.103-1.222-0.503-1.506-1.036l-5.119-9.998-2.35-0.38zm1.89-11.29l-1.27 7.586 4.9 0.82c2.25 0.376 3.54-1.311 3.862-3.235 0.328-1.96-0.343-3.975-2.701-4.369l-4.79-0.81z"/>
	<path d="m320.56 418.4c-1.053-0.176-1.748-1.15-1.572-2.203 0.066-0.399 0.285-0.811 0.552-1.064l15.16-15.673-9.982-1.671c-1.016-0.17-1.71-1.145-1.54-2.161s1.145-1.711 2.16-1.541l13.722 2.296c1.016 0.17 1.711 1.145 1.541 2.161-0.055 0.327-0.188 0.678-0.503 0.998l-15.131 15.715 11.072 1.853c1.053 0.177 1.748 1.152 1.571 2.204-0.176 1.053-1.15 1.748-2.203 1.571l-14.85-2.5z"/>
	<path d="m350.14 408.8l6.861 1.148c1.016 0.17 1.711 1.145 1.54 2.161-0.17 1.016-1.145 1.712-2.16 1.542l-6.861-1.148-1.118 6.679 9.619 1.609c1.053 0.177 1.75 1.151 1.573 2.204-0.176 1.053-1.151 1.748-2.204 1.571l-11.725-1.962c-1.161-0.194-1.948-1.296-1.754-2.458l3.384-20.219c0.194-1.161 1.297-1.946 2.458-1.752l11.326 1.896c1.053 0.176 1.747 1.149 1.57 2.202-0.176 1.053-1.149 1.748-2.202 1.572l-9.221-1.543-1.09 6.5z"/>
	<path d="m378.23 428.05c-1.053-0.176-1.748-1.151-1.572-2.204 0.066-0.398 0.285-0.811 0.552-1.063l15.16-15.674-9.982-1.67c-1.017-0.171-1.712-1.146-1.541-2.161 0.17-1.017 1.145-1.711 2.161-1.541l13.722 2.296c1.016 0.17 1.711 1.145 1.541 2.161-0.055 0.326-0.188 0.677-0.503 0.998l-15.131 15.715 11.07 1.853c1.053 0.177 1.75 1.151 1.573 2.204-0.176 1.053-1.151 1.748-2.204 1.571l-14.85-2.49z"/>
	<path d="m407.82 418.45l6.861 1.148c1.016 0.17 1.711 1.144 1.54 2.161-0.17 1.016-1.145 1.711-2.16 1.541l-6.861-1.147-1.118 6.679 9.619 1.609c1.053 0.176 1.748 1.151 1.572 2.203-0.176 1.053-1.15 1.748-2.203 1.572l-11.725-1.962c-1.161-0.194-1.948-1.296-1.754-2.458l3.384-20.219c0.194-1.162 1.297-1.947 2.458-1.753l11.326 1.896c1.053 0.176 1.747 1.15 1.57 2.203-0.176 1.053-1.149 1.748-2.202 1.572l-9.221-1.543-1.09 6.5z"/>
	<path d="m428.36 434.57c-0.194 1.161-1.296 1.947-2.458 1.753-1.161-0.194-1.947-1.297-1.753-2.458l3.48-20.8c0.194-1.161 1.297-1.946 2.458-1.752 1.162 0.194 1.947 1.295 1.753 2.457l-3.48 20.8z"/>
	<path d="m449.68 418.7l-3.164 18.912c-0.194 1.161-1.296 1.947-2.457 1.753-1.162-0.194-1.947-1.297-1.753-2.458l3.164-18.912-5.555-0.93c-1.017-0.17-1.711-1.145-1.541-2.16 0.17-1.017 1.145-1.712 2.161-1.542l15.319 2.563c1.016 0.171 1.711 1.145 1.541 2.161s-1.146 1.712-2.161 1.541l-5.56-0.92z"/>
</g>
</svg>
