<?xml version="1.0" encoding="utf-8"?>
<!-- Generator: Adobe Illustrator 16.0.4, SVG Export Plug-In . SVG Version: 6.00 Build 0)  -->
<!DOCTYPE svg PUBLIC "-//W3C//DTD SVG 1.1//EN" "http://www.w3.org/Graphics/SVG/1.1/DTD/svg11.dtd">
<svg version="1.1" xmlns="http://www.w3.org/2000/svg" xmlns:xlink="http://www.w3.org/1999/xlink" x="0px" y="0px"
	 width="566.93px" height="566.93px" viewBox="0 0 566.93 566.93" enable-background="new 0 0 566.93 566.93" xml:space="preserve">
<g id="Ebene_1" display="none">
	<g display="inline">
		<path fill="#FFFFFF" d="M237.791,556.698c150.271,25.146,292.476-76.288,317.623-226.559
			c25.147-150.271-76.287-292.476-226.558-317.623C178.584-12.63,36.38,88.804,11.233,239.075
			C-13.914,389.346,87.52,531.551,237.791,556.698"/>
	</g>
	
		<line display="inline" fill="none" stroke="#F5CDD2" stroke-width="9.729" stroke-linecap="round" x1="218.558" y1="226.434" x2="359.129" y2="249.958"/>
	<g display="inline">
		<path fill="#F5CDD2" d="M361.121,392.754c-1.615,1.183-3.554,1.476-6.17,1.039c-4.701-0.787-6.402-3.652-5.366-9.839
			c0.976-5.832,3.581-8.375,8.283-7.588c2.58,0.431,3.952,1.569,5.135,3.403c0.377,0.571,0.837,0.866,1.331,0.948
			c1.061,0.179,2.052-0.527,2.223-1.554c0.064-0.388,0.019-0.76-0.194-1.231c-1.093-2.363-3.603-4.527-7.879-5.243
			c-7.034-1.177-11.739,2.179-13.141,10.556c-1.449,8.661,1.959,13.046,8.993,14.223c3.782,0.634,7.796-0.329,9.871-2.309
			c0.514-0.459,0.778-0.96,0.914-1.772l0.946-5.656c0.173-1.024-0.641-2.033-1.63-2.197l-6.857-1.148
			c-0.99-0.166-1.939,0.512-2.104,1.501c-0.166,0.99,0.511,1.938,1.501,2.104l4.808,0.805L361.121,392.754z M338.688,369.595
			c-1.096-0.184-2.169,0.582-2.353,1.679l-2.343,13.997l-7.925-16.915c-0.265-0.589-0.777-1.003-1.484-1.121
			c-1.096-0.183-2.169,0.582-2.352,1.679l-3.401,20.325c-0.184,1.096,0.582,2.168,1.678,2.352s2.168-0.581,2.352-1.677l2.33-13.929
			l7.909,16.805c0.264,0.589,0.841,1.05,1.513,1.16c1.096,0.186,2.169-0.581,2.353-1.677l3.401-20.326
			C340.549,370.851,339.783,369.779,338.688,369.595 M302.128,388.731c7.14,1.196,9.616-2.75,10.291-6.78l2.385-14.245
			c0.189-1.131-0.576-2.204-1.708-2.395c-1.13-0.188-2.204,0.577-2.393,1.709l-2.384,14.245c-0.36,2.155-1.594,4.53-5.588,3.86
			c-3.995-0.668-4.388-3.314-4.027-5.47l2.385-14.246c0.188-1.131-0.577-2.203-1.708-2.393c-1.131-0.188-2.203,0.576-2.393,1.707
			l-2.384,14.245C293.93,382.999,294.987,387.536,302.128,388.731 M277.151,380.119l3.047-18.204
			c0.188-1.132-0.577-2.204-1.708-2.395c-1.131-0.188-2.203,0.577-2.393,1.709l-3.354,20.042c-0.189,1.131,0.517,2.121,1.684,2.315
			l10.462,1.751c1.167,0.196,2.116-0.481,2.299-1.577c0.179-1.061-0.493-2.044-1.66-2.24L277.151,380.119z M253.311,355.599
			c-1.132-0.19-2.205,0.576-2.393,1.707l-3.295,19.689c-0.189,1.13,0.576,2.204,1.707,2.393l4.772,0.8
			c7.035,1.176,12.016-1.225,13.476-9.956c1.461-8.729-2.46-12.658-9.495-13.835L253.311,355.599z M254.746,359.617l2.722,0.456
			c4.525,0.757,6.897,3.299,5.868,9.449s-4.094,7.745-8.619,6.988l-2.722-0.456L254.746,359.617z M241.694,353.364
			c-1.097-0.184-2.168,0.581-2.352,1.677l-2.343,13.998l-7.925-16.915c-0.265-0.589-0.777-1.002-1.484-1.121
			c-1.095-0.184-2.168,0.583-2.352,1.678l-3.401,20.325c-0.183,1.098,0.582,2.17,1.678,2.354c1.096,0.182,2.169-0.583,2.353-1.679
			l2.33-13.927l7.908,16.803c0.265,0.59,0.842,1.05,1.514,1.162c1.096,0.184,2.168-0.581,2.352-1.677l3.401-20.326
			C243.555,354.62,242.789,353.547,241.694,353.364 M210.351,366.506l1.299,5.486c0.193,0.795,0.764,1.51,1.684,1.663
			c1.096,0.184,2.169-0.583,2.353-1.677c0.036-0.214,0.047-0.502-0.017-0.767l-4.941-21.723c-0.13-0.53-0.565-1.401-1.661-1.585
			c-1.096-0.184-1.792,0.499-2.087,0.958l-11.744,18.931c-0.147,0.229-0.229,0.505-0.265,0.718
			c-0.183,1.097,0.582,2.169,1.678,2.353c0.919,0.154,1.691-0.336,2.134-1.024l3.013-4.765L210.351,366.506z M209.599,362.528
			l-5.797-0.971l4.141-6.938L209.599,362.528z M192.04,347.162c0.189-1.131-0.575-2.203-1.707-2.393
			c-1.131-0.188-2.204,0.574-2.394,1.707l-1.336,7.988l-10.11-1.691l1.337-7.988c0.189-1.133-0.576-2.204-1.708-2.395
			c-1.131-0.188-2.204,0.576-2.393,1.707l-3.389,20.255c-0.189,1.13,0.576,2.204,1.707,2.394c1.132,0.188,2.205-0.576,2.394-1.707
			l1.426-8.519l10.11,1.69l-1.426,8.52c-0.189,1.131,0.576,2.204,1.707,2.393c1.132,0.19,2.205-0.574,2.394-1.705L192.04,347.162z"
			/>
		<path fill="#F5CDD2" d="M471.805,363.673c0.147-0.884-0.471-1.75-1.354-1.898l-7.069-1.183c-0.884-0.147-1.75,0.47-1.897,1.354
			c-0.149,0.884,0.47,1.75,1.354,1.898l7.069,1.183C470.79,365.174,471.656,364.557,471.805,363.673 M446.271,350.788l8.979,1.503
			c1.024,0.171,1.975-0.506,2.146-1.531c0.171-1.024-0.506-1.975-1.531-2.146l-11.028-1.847c-1.132-0.188-2.204,0.576-2.394,1.709
			l-3.295,19.688c-0.189,1.131,0.575,2.203,1.707,2.393l11.417,1.91c1.025,0.173,1.975-0.505,2.146-1.53s-0.506-1.975-1.531-2.146
			l-9.367-1.567l1.088-6.505l6.682,1.118c0.99,0.166,1.938-0.51,2.104-1.5c0.167-0.989-0.51-1.939-1.5-2.104l-6.681-1.119
			L446.271,350.788z M424.241,367.777c5.09,0.852,8.144-1.544,8.865-5.855c0.461-2.759-0.244-4.84-2.724-6.308
			c1.567-0.464,3.029-2.036,3.42-4.368c0.544-3.253-0.88-6.471-6.218-7.363l-6.362-1.066c-1.131-0.188-2.203,0.576-2.394,1.707
			l-3.294,19.689c-0.189,1.131,0.576,2.204,1.707,2.393L424.241,367.777z M421.066,356.345l4.949,0.828
			c2.333,0.391,3.28,1.894,2.92,4.051c-0.355,2.12-1.569,3.298-4.079,2.877l-4.949-0.827L421.066,356.345z M422.657,346.836
			l4.313,0.722c2.227,0.374,2.95,1.692,2.643,3.531c-0.296,1.768-1.427,2.885-3.654,2.513l-4.312-0.72L422.657,346.836z
			 M410.369,344.707c0.989,0.165,1.938-0.511,2.104-1.501c0.167-0.989-0.51-1.939-1.501-2.104l-14.916-2.495
			c-0.99-0.167-1.94,0.51-2.104,1.499c-0.166,0.99,0.512,1.94,1.501,2.104l5.407,0.906l-3.081,18.416
			c-0.189,1.132,0.575,2.204,1.707,2.394c1.132,0.188,2.204-0.576,2.394-1.707l3.081-18.417L410.369,344.707z M385.136,341.975
			c0.446,0.584,0.894,0.948,1.39,1.032c1.06,0.177,2.05-0.529,2.223-1.555c0.07-0.425-0.007-0.837-0.165-1.189
			c-1.077-2.252-3.934-4.074-7.468-4.667c-5.621-0.94-8.628,1.609-9.213,5.108c-1.425,8.52,11.872,8.311,11.01,13.471
			c-0.367,2.191-2.101,2.991-5.317,2.453c-2.438-0.407-4.11-1.923-5.347-3.656c-0.295-0.412-0.648-0.907-1.426-1.037
			c-1.024-0.173-2.016,0.535-2.193,1.595c-0.059,0.354-0.012,0.725,0.117,1.037c1.007,2.457,4.016,5.105,8.223,5.81
			c5.832,0.976,9.322-1.202,10.043-5.514c1.479-8.838-11.784-8.841-11.009-13.471c0.236-1.414,1.563-2.609,4.496-2.119
			C382.515,339.61,384.217,340.729,385.136,341.975 M354.365,335.407l8.979,1.503c1.024,0.171,1.974-0.505,2.145-1.529
			c0.172-1.026-0.505-1.975-1.529-2.146l-11.029-1.847c-1.132-0.19-2.204,0.576-2.394,1.707l-3.295,19.689
			c-0.189,1.13,0.576,2.204,1.707,2.393l11.417,1.911c1.025,0.171,1.975-0.505,2.146-1.531c0.171-1.024-0.506-1.974-1.53-2.146
			l-9.368-1.568l1.089-6.503l6.681,1.118c0.99,0.166,1.939-0.512,2.104-1.501c0.167-0.99-0.511-1.938-1.501-2.104l-6.681-1.118
			L354.365,335.407z M342.076,333.279c0.989,0.165,1.938-0.512,2.104-1.503c0.167-0.988-0.51-1.938-1.5-2.103l-14.917-2.497
			c-0.99-0.165-1.939,0.512-2.104,1.501c-0.166,0.989,0.512,1.939,1.501,2.104l5.407,0.905l-3.081,18.416
			c-0.188,1.131,0.576,2.205,1.708,2.395c1.131,0.188,2.203-0.576,2.394-1.708l3.081-18.417L342.076,333.279z M303.444,347.854
			c0.99,0.167,1.939-0.511,2.104-1.501c0.113-0.671-0.134-1.366-0.817-1.845c-1.102-0.803-1.849-1.327-2.35-1.81
			c0.696-0.685,1.25-1.391,1.786-2.426c0.166-0.336,0.296-0.678,0.337-0.927c0.166-0.99-0.534-2.015-1.56-2.186
			c-0.849-0.144-1.609,0.275-2.075,1.105c-0.407,0.695-0.86,1.455-1.209,1.797c-1.66-1.586-3.326-3.792-4.379-5.748
			c3.028-1.601,5.505-3.585,5.979-6.413c0.467-2.791-0.703-5.786-4.485-6.419c-3.712-0.621-6.213,1.939-6.751,5.157
			c-0.396,2.368,0.127,4.454,0.544,5.868c-2.475,1.33-4.179,3.263-4.57,5.595c-0.739,4.418,2.141,7.407,6.523,8.143
			c3.111,0.52,5.215-0.109,6.913-1.134C300.658,346.261,302.525,347.7,303.444,347.854 M293.102,342.78
			c-2.156-0.361-3.558-1.977-3.215-4.026c0.208-1.237,0.944-2.168,2.118-2.879c1.111,2.256,2.707,4.449,4.703,6.419
			C295.529,342.823,294.692,343.046,293.102,342.78 M293.843,327.277c0.247-1.483,0.974-2.561,2.317-2.337
			c1.166,0.196,1.46,1.263,1.282,2.323c-0.236,1.413-1.434,2.703-3.449,3.674C293.759,329.953,293.624,328.586,293.843,327.277
			 M270.273,319.373c0.19-1.131-0.575-2.203-1.706-2.393c-1.132-0.188-2.204,0.575-2.394,1.707l-1.336,7.988l-10.11-1.69
			l1.337-7.989c0.189-1.131-0.575-2.205-1.708-2.395c-1.131-0.188-2.204,0.577-2.393,1.708l-3.39,20.254
			c-0.19,1.132,0.576,2.204,1.707,2.395c1.131,0.189,2.204-0.577,2.393-1.707l1.427-8.52l10.109,1.692l-1.425,8.518
			c-0.19,1.131,0.576,2.205,1.707,2.394c1.131,0.189,2.204-0.575,2.393-1.706L270.273,319.373z M232.183,336.146
			c3.782,0.633,7.366-0.365,9.441-2.345c0.26-0.247,0.46-0.576,0.531-1.001c0.176-1.061-0.53-2.051-1.59-2.229
			c-0.495-0.082-0.99,0.053-1.65,0.523c-1.986,1.449-3.501,1.813-6.117,1.374c-4.701-0.785-6.402-3.651-5.367-9.837
			c0.976-5.831,3.582-8.376,8.284-7.589c2.581,0.432,3.952,1.569,5.136,3.402c0.376,0.572,0.836,0.867,1.331,0.95
			c1.061,0.178,2.052-0.528,2.223-1.555c0.066-0.388,0.018-0.76-0.194-1.231c-1.094-2.363-3.604-4.527-7.88-5.243
			c-7.034-1.177-11.739,2.179-13.141,10.556C221.74,330.584,225.148,334.971,232.183,336.146 M214.091,305.72
			c1.131,0.189,1.868-0.306,2.069-1.506c0.219-1.309-0.323-1.98-1.454-2.171c-1.131-0.188-1.862,0.271-2.081,1.579
			C212.424,304.824,212.96,305.531,214.091,305.72 M207.693,304.649c1.131,0.188,1.868-0.305,2.068-1.507
			c0.219-1.309-0.322-1.979-1.454-2.169c-1.132-0.189-1.862,0.27-2.081,1.578C206.026,303.754,206.562,304.46,207.693,304.649
			 M211.81,325.869l1.298,5.486c0.194,0.795,0.765,1.509,1.684,1.662c1.095,0.185,2.169-0.581,2.352-1.677
			c0.036-0.212,0.047-0.501-0.017-0.767l-4.941-21.721c-0.129-0.53-0.564-1.402-1.66-1.586s-1.791,0.499-2.086,0.959l-11.744,18.93
			c-0.147,0.229-0.23,0.507-0.266,0.719c-0.183,1.096,0.582,2.168,1.678,2.352c0.919,0.153,1.691-0.335,2.133-1.024l3.014-4.764
			L211.81,325.869z M211.058,321.893l-5.797-0.971l4.141-6.938L211.058,321.893z M186.392,307.299
			c2.297,0.385,2.95,2.347,2.63,4.257c-0.313,1.873-1.569,3.515-3.761,3.149l-4.772-0.799l1.236-7.389L186.392,307.299z
			 M182.184,317.896l4.984,9.737c0.277,0.52,0.866,0.908,1.466,1.009c1.131,0.188,2.205-0.577,2.394-1.707
			c0.065-0.389,0.03-0.831-0.217-1.309l-4.167-7.238c3.464,0.144,6.059-2.766,6.621-6.123c0.668-3.995-1.45-7.838-6.223-8.637
			l-6.751-1.13c-1.131-0.188-2.205,0.576-2.393,1.708l-3.342,19.972c-0.189,1.132,0.576,2.204,1.707,2.393
			c1.131,0.189,2.205-0.575,2.394-1.706l1.231-7.354L182.184,317.896z M163.062,303.394c2.155,0.361,3.292,1.824,2.901,4.157
			c-0.384,2.298-1.911,3.386-4.103,3.02l-4.384-0.733l1.201-7.176L163.062,303.394z M161.564,314.3
			c4.207,0.704,7.825-1.162,8.642-6.04c0.829-4.948-2.075-7.796-6.21-8.489l-6.752-1.129c-1.131-0.189-2.203,0.576-2.393,1.707
			l-3.343,19.972c-0.188,1.132,0.577,2.205,1.708,2.394c1.131,0.189,2.203-0.576,2.393-1.707l1.254-7.493L161.564,314.3z
			 M143.637,301.562c0.448,0.583,0.895,0.949,1.39,1.032c1.061,0.178,2.051-0.53,2.222-1.555c0.072-0.424-0.005-0.837-0.164-1.19
			c-1.078-2.251-3.934-4.073-7.469-4.665c-5.62-0.94-8.626,1.608-9.212,5.108c-1.425,8.519,11.874,8.31,11.009,13.471
			c-0.367,2.191-2.099,2.991-5.316,2.453c-2.438-0.408-4.111-1.923-5.348-3.656c-0.294-0.413-0.647-0.908-1.425-1.037
			c-1.025-0.173-2.015,0.533-2.192,1.594c-0.059,0.354-0.012,0.725,0.117,1.038c1.006,2.457,4.015,5.104,8.222,5.809
			c5.833,0.976,9.322-1.203,10.043-5.515c1.479-8.837-11.784-8.839-11.009-13.471c0.237-1.414,1.563-2.608,4.498-2.117
			C141.017,299.196,142.719,300.317,143.637,301.562 M112.868,294.995l8.978,1.503c1.025,0.171,1.975-0.505,2.146-1.531
			c0.171-1.024-0.506-1.974-1.53-2.146l-11.029-1.846c-1.132-0.189-2.205,0.576-2.393,1.708l-3.295,19.688
			c-0.19,1.131,0.576,2.203,1.707,2.393l11.418,1.911c1.025,0.172,1.974-0.506,2.146-1.53c0.171-1.025-0.506-1.975-1.531-2.146
			l-9.368-1.567l1.088-6.504l6.682,1.118c0.99,0.166,1.938-0.511,2.104-1.501c0.166-0.989-0.511-1.939-1.5-2.104l-6.681-1.118
			L112.868,294.995z M94.854,307.314c-1.615,1.184-3.553,1.478-6.169,1.039c-4.702-0.786-6.403-3.65-5.367-9.837
			c0.976-5.832,3.582-8.377,8.283-7.59c2.581,0.433,3.953,1.57,5.136,3.403c0.376,0.571,0.836,0.867,1.331,0.95
			c1.06,0.177,2.051-0.529,2.222-1.555c0.065-0.389,0.019-0.76-0.194-1.231c-1.094-2.363-3.603-4.527-7.88-5.243
			c-7.034-1.178-11.738,2.178-13.141,10.557c-1.449,8.66,1.96,13.046,8.994,14.223c3.783,0.633,7.795-0.331,9.871-2.309
			c0.513-0.459,0.778-0.96,0.915-1.773l0.946-5.655c0.171-1.025-0.641-2.033-1.63-2.199l-6.857-1.147
			c-0.99-0.166-1.939,0.511-2.105,1.501c-0.166,0.989,0.512,1.938,1.501,2.104l4.807,0.804L94.854,307.314z"/>
		<path fill="#F5CDD2" d="M441.574,317.732c0.146-0.884-0.471-1.75-1.354-1.897l-7.07-1.184c-0.884-0.146-1.75,0.471-1.897,1.354
			c-0.148,0.884,0.47,1.75,1.353,1.897l7.07,1.183C440.559,319.235,441.425,318.616,441.574,317.732 M422.313,307.314
			c0.447,0.584,0.895,0.949,1.39,1.032c1.061,0.178,2.051-0.528,2.222-1.553c0.072-0.426-0.005-0.838-0.163-1.191
			c-1.077-2.251-3.934-4.074-7.469-4.665c-5.62-0.94-8.627,1.608-9.213,5.108c-1.425,8.518,11.873,8.309,11.01,13.47
			c-0.366,2.192-2.099,2.993-5.316,2.454c-2.438-0.408-4.111-1.924-5.348-3.656c-0.295-0.413-0.646-0.909-1.425-1.039
			c-1.025-0.171-2.016,0.536-2.192,1.596c-0.06,0.354-0.013,0.725,0.116,1.036c1.006,2.458,4.015,5.106,8.222,5.811
			c5.832,0.976,9.322-1.202,10.044-5.514c1.479-8.838-11.784-8.841-11.01-13.471c0.237-1.414,1.564-2.61,4.497-2.119
			C419.693,304.95,421.395,306.071,422.313,307.314 M395.551,316.754c-1.614,1.183-3.553,1.477-6.168,1.039
			c-4.701-0.786-6.403-3.651-5.367-9.837c0.976-5.832,3.582-8.377,8.282-7.59c2.58,0.432,3.953,1.569,5.136,3.403
			c0.377,0.571,0.836,0.866,1.331,0.949c1.062,0.178,2.051-0.528,2.223-1.554c0.064-0.389,0.019-0.761-0.193-1.232
			c-1.095-2.362-3.604-4.527-7.881-5.243c-7.034-1.177-11.737,2.179-13.14,10.557c-1.45,8.66,1.959,13.046,8.994,14.224
			c3.781,0.632,7.795-0.331,9.87-2.309c0.513-0.46,0.778-0.961,0.914-1.773l0.947-5.656c0.171-1.024-0.642-2.033-1.632-2.198
			l-6.856-1.148c-0.991-0.166-1.939,0.512-2.105,1.502c-0.166,0.989,0.512,1.938,1.502,2.104l4.807,0.804L395.551,316.754z
			 M373.118,293.596c-1.096-0.184-2.168,0.582-2.352,1.678l-2.343,13.998l-7.925-16.916c-0.265-0.589-0.776-1.002-1.483-1.12
			c-1.097-0.184-2.169,0.582-2.353,1.678l-3.402,20.325c-0.183,1.096,0.583,2.168,1.679,2.353c1.096,0.183,2.168-0.582,2.352-1.678
			l2.331-13.928l7.907,16.804c0.266,0.59,0.843,1.05,1.514,1.162c1.097,0.183,2.169-0.583,2.352-1.679l3.401-20.324
			C374.979,294.852,374.215,293.779,373.118,293.596 M336.558,312.733c7.141,1.194,9.618-2.752,10.293-6.782l2.384-14.245
			c0.188-1.131-0.576-2.204-1.707-2.394c-1.132-0.189-2.205,0.576-2.394,1.708l-2.385,14.245c-0.359,2.156-1.594,4.53-5.588,3.86
			c-3.993-0.667-4.387-3.312-4.026-5.469l2.384-14.246c0.189-1.132-0.576-2.204-1.706-2.394c-1.133-0.188-2.205,0.576-2.394,1.707
			l-2.385,14.246C328.36,307,329.418,311.538,336.558,312.733 M322.91,289.191c0.989,0.165,1.938-0.512,2.104-1.502
			c0.165-0.99-0.512-1.938-1.501-2.105l-14.917-2.495c-0.989-0.166-1.939,0.511-2.104,1.501c-0.166,0.99,0.512,1.938,1.5,2.104
			l5.409,0.906l-3.082,18.416c-0.189,1.131,0.576,2.204,1.707,2.393c1.132,0.189,2.204-0.575,2.394-1.706l3.082-18.417
			L322.91,289.191z M296.354,299.137l1.299,5.486c0.194,0.795,0.766,1.509,1.684,1.662c1.097,0.184,2.169-0.581,2.353-1.677
			c0.036-0.212,0.048-0.501-0.018-0.767l-4.94-21.721c-0.13-0.53-0.565-1.403-1.66-1.586c-1.097-0.183-1.792,0.5-2.087,0.959
			l-11.744,18.93c-0.146,0.229-0.229,0.506-0.264,0.718c-0.184,1.097,0.581,2.169,1.677,2.353c0.919,0.153,1.691-0.335,2.133-1.025
			l3.015-4.763L296.354,299.137z M295.603,295.159l-5.797-0.97l4.141-6.938L295.603,295.159z M270.936,280.566
			c2.298,0.384,2.951,2.346,2.631,4.256c-0.312,1.874-1.568,3.516-3.761,3.15l-4.772-0.8l1.236-7.388L270.936,280.566z
			 M266.728,291.163l4.984,9.737c0.277,0.519,0.865,0.908,1.467,1.008c1.131,0.188,2.204-0.575,2.393-1.707
			c0.065-0.389,0.03-0.83-0.217-1.308l-4.167-7.238c3.464,0.143,6.059-2.767,6.621-6.124c0.669-3.994-1.45-7.837-6.222-8.636
			l-6.752-1.129c-1.131-0.19-2.203,0.575-2.393,1.707l-3.342,19.971c-0.189,1.133,0.576,2.205,1.708,2.394
			c1.13,0.189,2.203-0.575,2.393-1.707l1.23-7.353L266.728,291.163z M244.248,276.1l8.979,1.502
			c1.026,0.172,1.975-0.505,2.146-1.531c0.171-1.024-0.506-1.974-1.531-2.145l-11.028-1.845c-1.131-0.189-2.204,0.576-2.394,1.707
			l-3.295,19.689c-0.188,1.132,0.576,2.204,1.708,2.394l11.417,1.91c1.025,0.172,1.975-0.505,2.146-1.529
			c0.172-1.025-0.505-1.975-1.531-2.146l-9.367-1.567l1.089-6.504l6.681,1.118c0.99,0.165,1.938-0.512,2.104-1.502
			c0.166-0.99-0.512-1.938-1.501-2.104l-6.681-1.119L244.248,276.1z M222.219,293.09c5.09,0.853,8.144-1.544,8.866-5.857
			c0.461-2.757-0.244-4.837-2.724-6.305c1.568-0.465,3.03-2.037,3.42-4.37c0.544-3.252-0.879-6.47-6.217-7.363l-6.363-1.064
			c-1.132-0.189-2.205,0.576-2.394,1.707l-3.295,19.689c-0.189,1.132,0.576,2.204,1.707,2.393L222.219,293.09z M219.045,281.658
			l4.949,0.828c2.333,0.391,3.28,1.894,2.919,4.05c-0.354,2.121-1.569,3.299-4.079,2.879l-4.949-0.829L219.045,281.658z
			 M220.636,272.148l4.312,0.722c2.228,0.373,2.951,1.693,2.644,3.532c-0.296,1.767-1.428,2.886-3.655,2.513l-4.312-0.722
			L220.636,272.148z M208.347,270.02c0.99,0.166,1.938-0.512,2.105-1.501c0.166-0.99-0.512-1.939-1.501-2.104l-14.917-2.496
			c-0.99-0.166-1.938,0.511-2.105,1.501c-0.165,0.989,0.512,1.938,1.501,2.104l5.409,0.905l-3.083,18.417
			c-0.189,1.131,0.577,2.203,1.708,2.394c1.131,0.189,2.204-0.576,2.394-1.708l3.082-18.416L208.347,270.02z M183.113,267.286
			c0.448,0.584,0.895,0.949,1.39,1.032c1.06,0.178,2.051-0.528,2.222-1.553c0.071-0.425-0.004-0.836-0.163-1.191
			c-1.078-2.252-3.934-4.074-7.469-4.666c-5.62-0.94-8.626,1.609-9.212,5.108c-1.425,8.52,11.874,8.311,11.009,13.471
			c-0.367,2.192-2.099,2.993-5.316,2.454c-2.439-0.409-4.111-1.924-5.348-3.657c-0.294-0.412-0.647-0.907-1.425-1.038
			c-1.025-0.171-2.015,0.535-2.192,1.595c-0.059,0.354-0.012,0.725,0.117,1.037c1.006,2.458,4.015,5.105,8.222,5.809
			c5.833,0.977,9.322-1.201,10.044-5.514c1.479-8.837-11.785-8.84-11.009-13.471c0.237-1.414,1.563-2.609,4.497-2.118
			C180.493,264.922,182.194,266.042,183.113,267.286 M155.702,261.282c2.296,0.385,2.95,2.347,2.631,4.256
			c-0.313,1.873-1.57,3.516-3.762,3.149l-4.772-0.798l1.236-7.389L155.702,261.282z M151.493,271.879l4.985,9.737
			c0.276,0.519,0.865,0.908,1.466,1.009c1.131,0.188,2.204-0.577,2.394-1.708c0.065-0.388,0.03-0.83-0.217-1.308l-4.167-7.239
			c3.464,0.144,6.059-2.766,6.622-6.123c0.668-3.995-1.45-7.838-6.222-8.637l-6.752-1.129c-1.131-0.189-2.203,0.576-2.393,1.707
			l-3.342,19.973c-0.189,1.131,0.577,2.204,1.708,2.393c1.131,0.19,2.203-0.576,2.393-1.707l1.23-7.353L151.493,271.879z
			 M129.013,256.816l8.979,1.502c1.025,0.172,1.974-0.505,2.146-1.53c0.171-1.025-0.505-1.974-1.531-2.146l-11.028-1.846
			c-1.131-0.188-2.204,0.577-2.394,1.708l-3.295,19.689c-0.189,1.131,0.577,2.204,1.708,2.393l11.417,1.911
			c1.025,0.171,1.974-0.506,2.146-1.531c0.172-1.026-0.505-1.975-1.531-2.146l-9.367-1.567l1.088-6.505l6.681,1.118
			c0.99,0.166,1.939-0.511,2.104-1.5c0.165-0.99-0.512-1.938-1.502-2.105l-6.68-1.118L129.013,256.816z"/>
	</g>
	<path display="inline" fill="#F5CDD2" d="M480.124,193.114c0.783,1.021,1.567,1.661,2.433,1.806
		c1.855,0.311,3.59-0.925,3.889-2.719c0.124-0.743-0.009-1.464-0.286-2.083c-1.885-3.94-6.884-7.129-13.069-8.165
		c-9.836-1.646-15.098,2.816-16.122,8.939c-2.495,14.908,20.777,14.542,19.266,23.573c-0.643,3.835-3.675,5.236-9.303,4.294
		c-4.27-0.714-7.195-3.366-9.358-6.399c-0.516-0.722-1.134-1.588-2.494-1.816c-1.794-0.3-3.527,0.937-3.838,2.792
		c-0.104,0.619-0.021,1.269,0.204,1.814c1.761,4.301,7.027,8.935,14.389,10.166c10.206,1.708,16.313-2.103,17.577-9.65
		c2.587-15.464-20.623-15.469-19.268-23.573c0.414-2.475,2.735-4.566,7.87-3.707C475.539,188.976,478.518,190.937,480.124,193.114
		 M426.175,180.715c8.166,1.366,11.348,7.051,9.63,17.319c-1.708,10.207-6.568,14.545-14.733,13.179
		c-8.166-1.367-11.348-7.051-9.64-17.257C413.15,183.687,418.01,179.349,426.175,180.715 M419.995,217.646
		c12.495,2.091,20.81-3.894,23.232-18.369c2.454-14.661-3.48-22.904-15.977-24.995c-12.495-2.091-20.789,3.771-23.242,18.432
		C401.586,207.188,407.499,215.555,419.995,217.646 M377.585,202.79l5.331-31.857c0.332-1.98-1.008-3.857-2.987-4.188
		c-1.979-0.332-3.857,1.008-4.188,2.988l-5.869,35.074c-0.331,1.979,0.904,3.713,2.946,4.054l18.311,3.064
		c2.041,0.342,3.702-0.843,4.023-2.761c0.311-1.856-0.864-3.579-2.906-3.92L377.585,202.79z M359.516,163.329
		c-1.918-0.321-3.795,1.018-4.115,2.936l-4.1,24.496l-13.87-29.602c-0.463-1.032-1.359-1.754-2.597-1.961
		c-1.917-0.321-3.795,1.019-4.116,2.936l-5.953,35.57c-0.319,1.917,1.019,3.795,2.937,4.115c1.918,0.321,3.796-1.019,4.116-2.936
		l4.079-24.373l13.838,29.406c0.464,1.031,1.475,1.836,2.649,2.033c1.917,0.321,3.795-1.018,4.116-2.936l5.952-35.569
		C362.772,165.526,361.434,163.649,359.516,163.329 M299.095,160.339l15.713,2.629c1.794,0.3,3.455-0.885,3.756-2.678
		c0.3-1.794-0.885-3.454-2.68-3.755l-19.3-3.23c-1.979-0.331-3.857,1.008-4.188,2.987l-5.766,34.456
		c-0.331,1.979,1.008,3.857,2.987,4.188l19.98,3.344c1.794,0.3,3.455-0.884,3.756-2.678c0.299-1.794-0.885-3.456-2.68-3.756
		l-16.392-2.742l1.903-11.383l11.692,1.958c1.732,0.289,3.394-0.895,3.683-2.627c0.29-1.732-0.896-3.393-2.627-3.683l-11.691-1.956
		L299.095,160.339z M277.589,156.613c1.731,0.291,3.393-0.894,3.683-2.626c0.29-1.732-0.895-3.393-2.627-3.682l-26.105-4.369
		c-1.732-0.29-3.393,0.894-3.683,2.627c-0.289,1.731,0.896,3.393,2.627,3.683l9.464,1.583l-5.393,32.229
		c-0.332,1.979,1.007,3.856,2.987,4.188c1.979,0.331,3.857-1.008,4.188-2.988l5.394-32.229L277.589,156.613z M233.43,151.831
		c0.783,1.021,1.565,1.662,2.432,1.806c1.856,0.311,3.588-0.925,3.89-2.719c0.124-0.743-0.01-1.464-0.289-2.083
		c-1.884-3.94-6.883-7.13-13.069-8.166c-9.835-1.646-15.097,2.816-16.122,8.94c-2.495,14.908,20.778,14.542,19.266,23.573
		c-0.641,3.836-3.674,5.236-9.303,4.294c-4.268-0.714-7.195-3.366-9.358-6.398c-0.516-0.722-1.133-1.589-2.495-1.817
		c-1.793-0.3-3.526,0.937-3.837,2.792c-0.104,0.619-0.021,1.268,0.205,1.815c1.76,4.301,7.026,8.935,14.388,10.166
		c10.207,1.708,16.313-2.104,17.577-9.65c2.587-15.465-20.623-15.47-19.266-23.574c0.414-2.475,2.735-4.566,7.87-3.707
		C228.845,147.693,231.822,149.654,233.43,151.831 M179.48,139.433c8.166,1.367,11.348,7.05,9.629,17.318
		c-1.707,10.208-6.567,14.545-14.732,13.179c-8.165-1.367-11.348-7.05-9.64-17.257C166.456,142.404,171.314,138.066,179.48,139.433
		 M173.3,176.363c12.496,2.09,20.811-3.895,23.233-18.37c2.453-14.661-3.48-22.903-15.976-24.995
		c-12.496-2.091-20.79,3.771-23.243,18.432C154.892,165.906,160.805,174.272,173.3,176.363 M130.035,128.615
		c0.332-1.979-1.008-3.857-2.987-4.188c-1.979-0.332-3.857,1.008-4.188,2.988l-5.932,35.445c-0.331,1.979,1.008,3.857,2.988,4.188
		c1.98,0.332,3.856-1.008,4.188-2.987l1.987-11.877l4.148-3.122l9.792,19.762c0.381,0.764,1.164,1.786,2.648,2.034
		c1.917,0.321,3.795-1.019,4.116-2.936c0.124-0.743,0.001-1.527-0.339-2.156l-10.555-20.907l13.742-10.674
		c0.66-0.525,1.155-1.206,1.321-2.195c0.321-1.917-0.967-3.723-2.885-4.044c-0.928-0.155-1.918,0.061-2.794,0.741l-17.621,14.094
		L130.035,128.615z"/>
	<path display="inline" fill="none" stroke="#F5CDD2" stroke-width="9.729" stroke-linecap="round" stroke-linejoin="round" d="
		M238.482,446.021c7.438,0.034,13.786,6.069,15.473,14.083c4.203-7.027,12.17-10.668,19.214-8.278
		c8.107,2.749,11.915,12.432,8.509,21.627c-3.306,10.543-34.053,26.268-34.053,26.268s-23.4-24.785-24.229-36.02
		C223.169,453.896,229.923,445.981,238.482,446.021z"/>
	
		<text transform="matrix(0.9863 0.165 -0.165 0.9863 371.7275 398.54)" display="inline" fill="#F5CDD2" font-family="'Bariol-Bold'" font-size="36.7998" letter-spacing="3">*</text>
	<circle display="inline" fill="none" cx="283.322" cy="284.605" r="247.255"/>
	<text transform="matrix(0.8801 -0.4748 0.4748 0.8801 403.248 515.3408)" display="inline"><tspan x="0" y="0" fill="#F5CDD2" font-family="'Bariol-Bold'" font-size="20">*</tspan><tspan x="9.793" y="0.003" fill="#F5CDD2" font-family="'Bariol-Bold'" font-size="20" rotate="-2.706">N</tspan><tspan x="24.586" y="-0.826" fill="#F5CDD2" font-family="'Bariol-Bold'" font-size="20" rotate="-5.096">i</tspan><tspan x="31.763" y="-1.356" fill="#F5CDD2" font-family="'Bariol-Bold'" font-size="20" rotate="-8.232">c</tspan><tspan x="46.781" y="-3.488" fill="#F5CDD2" font-family="'Bariol-Bold'" font-size="20" rotate="-10.817">h</tspan><tspan x="61.71" y="-6.428" fill="#F5CDD2" font-family="'Bariol-Bold'" font-size="20" rotate="-13.995">t</tspan><tspan x="74.933" y="-9.84" fill="#F5CDD2" font-family="'Bariol-Bold'" font-size="20" rotate="-16.256"> </tspan><tspan x="81.479" y="-11.736" fill="#F5CDD2" font-family="'Bariol-Bold'" font-size="20" rotate="-18.42">f</tspan><tspan x="93.731" y="-15.86" fill="#F5CDD2" font-family="'Bariol-Bold'" font-size="20" rotate="-21.498">ü</tspan><tspan x="107.497" y="-21.371" fill="#F5CDD2" font-family="'Bariol-Bold'" font-size="20" rotate="-24.659">r</tspan><tspan x="119.751" y="-27.12" fill="#F5CDD2" font-family="'Bariol-Bold'" font-size="20" rotate="-26.923"> </tspan><tspan x="125.878" y="-30.207" fill="#F5CDD2" font-family="'Bariol-Bold'" font-size="20" rotate="-29.215">S</tspan><tspan x="137.988" y="-37.042" fill="#F5CDD2" font-family="'Bariol-Bold'" font-size="20" rotate="-32.398">u</tspan><tspan x="150.474" y="-45.064" fill="#F5CDD2" font-family="'Bariol-Bold'" font-size="20" rotate="-35.567">b</tspan><tspan x="161.653" y="-53.155" fill="#F5CDD2" font-family="'Bariol-Bold'" font-size="20" rotate="-38.442">l</tspan><tspan x="171.233" y="-60.797" fill="#F5CDD2" font-family="'Bariol-Bold'" font-size="20" rotate="-41.433">a</tspan><tspan x="182.381" y="-70.749" fill="#F5CDD2" font-family="'Bariol-Bold'" font-size="20" rotate="-44.589">t</tspan><tspan x="192.017" y="-80.405" fill="#F5CDD2" font-family="'Bariol-Bold'" font-size="20" rotate="-46.858">i</tspan><tspan x="196.862" y="-85.533" fill="#F5CDD2" font-family="'Bariol-Bold'" font-size="20" rotate="-49.22">v</tspan><tspan x="206.342" y="-96.656" fill="#F5CDD2" font-family="'Bariol-Bold'" font-size="20" rotate="-52.236">e</tspan></text>
</g>
<g id="Ebene_1_Kopie">
	<g>
		<path fill="#FFFFFF" d="M237.791,556.698c150.271,25.146,292.476-76.288,317.623-226.559
			c25.147-150.271-76.287-292.476-226.558-317.623C178.584-12.63,36.38,88.804,11.233,239.075
			C-13.914,389.346,87.52,531.551,237.791,556.698"/>
	</g>
	
		<line fill="none" stroke="#F5CDD2" stroke-width="9.729" stroke-linecap="round" x1="218.558" y1="226.434" x2="359.129" y2="249.958"/>
	<g>
		<path fill="#F5CDD2" d="M361.121,392.754c-1.615,1.183-3.554,1.476-6.17,1.039c-4.701-0.787-6.402-3.652-5.366-9.839
			c0.976-5.832,3.581-8.375,8.283-7.588c2.58,0.431,3.952,1.569,5.135,3.403c0.377,0.571,0.837,0.866,1.331,0.948
			c1.061,0.179,2.052-0.527,2.223-1.554c0.064-0.388,0.019-0.76-0.194-1.231c-1.093-2.363-3.603-4.527-7.879-5.243
			c-7.034-1.177-11.739,2.179-13.141,10.556c-1.449,8.661,1.959,13.046,8.993,14.223c3.782,0.634,7.796-0.329,9.871-2.309
			c0.514-0.459,0.778-0.96,0.914-1.772l0.946-5.656c0.173-1.024-0.641-2.033-1.63-2.197l-6.857-1.148
			c-0.99-0.166-1.939,0.512-2.104,1.501c-0.166,0.99,0.511,1.938,1.501,2.104l4.808,0.805L361.121,392.754z M338.688,369.595
			c-1.096-0.184-2.169,0.582-2.353,1.679l-2.343,13.997l-7.925-16.915c-0.265-0.589-0.777-1.003-1.484-1.121
			c-1.096-0.183-2.169,0.582-2.352,1.679l-3.401,20.325c-0.184,1.096,0.582,2.168,1.678,2.352s2.168-0.581,2.352-1.677l2.33-13.929
			l7.909,16.805c0.264,0.589,0.841,1.05,1.513,1.16c1.096,0.186,2.169-0.581,2.353-1.677l3.401-20.326
			C340.549,370.851,339.783,369.779,338.688,369.595 M302.128,388.731c7.14,1.196,9.616-2.75,10.291-6.78l2.385-14.245
			c0.189-1.131-0.576-2.204-1.708-2.395c-1.13-0.188-2.204,0.577-2.393,1.709l-2.384,14.245c-0.36,2.155-1.594,4.53-5.588,3.86
			c-3.995-0.668-4.388-3.314-4.027-5.47l2.385-14.246c0.188-1.131-0.577-2.203-1.708-2.393c-1.131-0.188-2.203,0.576-2.393,1.707
			l-2.384,14.245C293.93,382.999,294.987,387.536,302.128,388.731 M277.151,380.119l3.047-18.204
			c0.188-1.132-0.577-2.204-1.708-2.395c-1.131-0.188-2.203,0.577-2.393,1.709l-3.354,20.042c-0.189,1.131,0.517,2.121,1.684,2.315
			l10.462,1.751c1.167,0.196,2.116-0.481,2.299-1.577c0.179-1.061-0.493-2.044-1.66-2.24L277.151,380.119z M253.311,355.599
			c-1.132-0.19-2.205,0.576-2.393,1.707l-3.295,19.689c-0.189,1.13,0.576,2.204,1.707,2.393l4.772,0.8
			c7.035,1.176,12.016-1.225,13.476-9.956c1.461-8.729-2.46-12.658-9.495-13.835L253.311,355.599z M254.746,359.617l2.722,0.456
			c4.525,0.757,6.897,3.299,5.868,9.449s-4.094,7.745-8.619,6.988l-2.722-0.456L254.746,359.617z M241.694,353.364
			c-1.097-0.184-2.168,0.581-2.352,1.677l-2.343,13.998l-7.925-16.915c-0.265-0.589-0.777-1.002-1.484-1.121
			c-1.095-0.184-2.168,0.583-2.352,1.678l-3.401,20.325c-0.183,1.098,0.582,2.17,1.678,2.354c1.096,0.182,2.169-0.583,2.353-1.679
			l2.33-13.927l7.908,16.803c0.265,0.59,0.842,1.05,1.514,1.162c1.096,0.184,2.168-0.581,2.352-1.677l3.401-20.326
			C243.555,354.62,242.789,353.547,241.694,353.364 M210.351,366.506l1.299,5.486c0.193,0.795,0.764,1.51,1.684,1.663
			c1.096,0.184,2.169-0.583,2.353-1.677c0.036-0.214,0.047-0.502-0.017-0.767l-4.941-21.723c-0.13-0.53-0.565-1.401-1.661-1.585
			c-1.096-0.184-1.792,0.499-2.087,0.958l-11.744,18.931c-0.147,0.229-0.229,0.505-0.265,0.718
			c-0.183,1.097,0.582,2.169,1.678,2.353c0.919,0.154,1.691-0.336,2.134-1.024l3.013-4.765L210.351,366.506z M209.599,362.528
			l-5.797-0.971l4.141-6.938L209.599,362.528z M192.04,347.162c0.189-1.131-0.575-2.203-1.707-2.393
			c-1.131-0.188-2.204,0.574-2.394,1.707l-1.336,7.988l-10.11-1.691l1.337-7.988c0.189-1.133-0.576-2.204-1.708-2.395
			c-1.131-0.188-2.204,0.576-2.393,1.707l-3.389,20.255c-0.189,1.13,0.576,2.204,1.707,2.394c1.132,0.188,2.205-0.576,2.394-1.707
			l1.426-8.519l10.11,1.69l-1.426,8.52c-0.189,1.131,0.576,2.204,1.707,2.393c1.132,0.19,2.205-0.574,2.394-1.705L192.04,347.162z"
			/>
		<path fill="#F5CDD2" d="M471.805,363.673c0.147-0.884-0.471-1.75-1.354-1.898l-7.069-1.183c-0.884-0.147-1.75,0.47-1.897,1.354
			c-0.149,0.884,0.47,1.75,1.354,1.898l7.069,1.183C470.79,365.174,471.656,364.557,471.805,363.673 M446.271,350.788l8.979,1.503
			c1.024,0.171,1.975-0.506,2.146-1.531c0.171-1.024-0.506-1.975-1.531-2.146l-11.028-1.847c-1.132-0.188-2.204,0.576-2.394,1.709
			l-3.295,19.688c-0.189,1.131,0.575,2.203,1.707,2.393l11.417,1.91c1.025,0.173,1.975-0.505,2.146-1.53s-0.506-1.975-1.531-2.146
			l-9.367-1.567l1.088-6.505l6.682,1.118c0.99,0.166,1.938-0.51,2.104-1.5c0.167-0.989-0.51-1.939-1.5-2.104l-6.681-1.119
			L446.271,350.788z M424.241,367.777c5.09,0.852,8.144-1.544,8.865-5.855c0.461-2.759-0.244-4.84-2.724-6.308
			c1.567-0.464,3.029-2.036,3.42-4.368c0.544-3.253-0.88-6.471-6.218-7.363l-6.362-1.066c-1.131-0.188-2.203,0.576-2.394,1.707
			l-3.294,19.689c-0.189,1.131,0.576,2.204,1.707,2.393L424.241,367.777z M421.066,356.345l4.949,0.828
			c2.333,0.391,3.28,1.894,2.92,4.051c-0.355,2.12-1.569,3.298-4.079,2.877l-4.949-0.827L421.066,356.345z M422.657,346.836
			l4.313,0.722c2.227,0.374,2.95,1.692,2.643,3.531c-0.296,1.768-1.427,2.885-3.654,2.513l-4.312-0.72L422.657,346.836z
			 M410.369,344.707c0.989,0.165,1.938-0.511,2.104-1.501c0.167-0.989-0.51-1.939-1.501-2.104l-14.916-2.495
			c-0.99-0.167-1.94,0.51-2.104,1.499c-0.166,0.99,0.512,1.94,1.501,2.104l5.407,0.906l-3.081,18.416
			c-0.189,1.132,0.575,2.204,1.707,2.394c1.132,0.188,2.204-0.576,2.394-1.707l3.081-18.417L410.369,344.707z M385.136,341.975
			c0.446,0.584,0.894,0.948,1.39,1.032c1.06,0.177,2.05-0.529,2.223-1.555c0.07-0.425-0.007-0.837-0.165-1.189
			c-1.077-2.252-3.934-4.074-7.468-4.667c-5.621-0.94-8.628,1.609-9.213,5.108c-1.425,8.52,11.872,8.311,11.01,13.471
			c-0.367,2.191-2.101,2.991-5.317,2.453c-2.438-0.407-4.11-1.923-5.347-3.656c-0.295-0.412-0.648-0.907-1.426-1.037
			c-1.024-0.173-2.016,0.535-2.193,1.595c-0.059,0.354-0.012,0.725,0.117,1.037c1.007,2.457,4.016,5.105,8.223,5.81
			c5.832,0.976,9.322-1.202,10.043-5.514c1.479-8.838-11.784-8.841-11.009-13.471c0.236-1.414,1.563-2.609,4.496-2.119
			C382.515,339.61,384.217,340.729,385.136,341.975 M354.365,335.407l8.979,1.503c1.024,0.171,1.974-0.505,2.145-1.529
			c0.172-1.026-0.505-1.975-1.529-2.146l-11.029-1.847c-1.132-0.19-2.204,0.576-2.394,1.707l-3.295,19.689
			c-0.189,1.13,0.576,2.204,1.707,2.393l11.417,1.911c1.025,0.171,1.975-0.505,2.146-1.531c0.171-1.024-0.506-1.974-1.53-2.146
			l-9.368-1.568l1.089-6.503l6.681,1.118c0.99,0.166,1.939-0.512,2.104-1.501c0.167-0.99-0.511-1.938-1.501-2.104l-6.681-1.118
			L354.365,335.407z M342.076,333.279c0.989,0.165,1.938-0.512,2.104-1.503c0.167-0.988-0.51-1.938-1.5-2.103l-14.917-2.497
			c-0.99-0.165-1.939,0.512-2.104,1.501c-0.166,0.989,0.512,1.939,1.501,2.104l5.407,0.905l-3.081,18.416
			c-0.188,1.131,0.576,2.205,1.708,2.395c1.131,0.188,2.203-0.576,2.394-1.708l3.081-18.417L342.076,333.279z M303.444,347.854
			c0.99,0.167,1.939-0.511,2.104-1.501c0.113-0.671-0.134-1.366-0.817-1.845c-1.102-0.803-1.849-1.327-2.35-1.81
			c0.696-0.685,1.25-1.391,1.786-2.426c0.166-0.336,0.296-0.678,0.337-0.927c0.166-0.99-0.534-2.015-1.56-2.186
			c-0.849-0.144-1.609,0.275-2.075,1.105c-0.407,0.695-0.86,1.455-1.209,1.797c-1.66-1.586-3.326-3.792-4.379-5.748
			c3.028-1.601,5.505-3.585,5.979-6.413c0.467-2.791-0.703-5.786-4.485-6.419c-3.712-0.621-6.213,1.939-6.751,5.157
			c-0.396,2.368,0.127,4.454,0.544,5.868c-2.475,1.33-4.179,3.263-4.57,5.595c-0.739,4.418,2.141,7.407,6.523,8.143
			c3.111,0.52,5.215-0.109,6.913-1.134C300.658,346.261,302.525,347.7,303.444,347.854 M293.102,342.78
			c-2.156-0.361-3.558-1.977-3.215-4.026c0.208-1.237,0.944-2.168,2.118-2.879c1.111,2.256,2.707,4.449,4.703,6.419
			C295.529,342.823,294.692,343.046,293.102,342.78 M293.843,327.277c0.247-1.483,0.974-2.561,2.317-2.337
			c1.166,0.196,1.46,1.263,1.282,2.323c-0.236,1.413-1.434,2.703-3.449,3.674C293.759,329.953,293.624,328.586,293.843,327.277
			 M270.273,319.373c0.19-1.131-0.575-2.203-1.706-2.393c-1.132-0.188-2.204,0.575-2.394,1.707l-1.336,7.988l-10.11-1.69
			l1.337-7.989c0.189-1.131-0.575-2.205-1.708-2.395c-1.131-0.188-2.204,0.577-2.393,1.708l-3.39,20.254
			c-0.19,1.132,0.576,2.204,1.707,2.395c1.131,0.189,2.204-0.577,2.393-1.707l1.427-8.52l10.109,1.692l-1.425,8.518
			c-0.19,1.131,0.576,2.205,1.707,2.394c1.131,0.189,2.204-0.575,2.393-1.706L270.273,319.373z M232.183,336.146
			c3.782,0.633,7.366-0.365,9.441-2.345c0.26-0.247,0.46-0.576,0.531-1.001c0.176-1.061-0.53-2.051-1.59-2.229
			c-0.495-0.082-0.99,0.053-1.65,0.523c-1.986,1.449-3.501,1.813-6.117,1.374c-4.701-0.785-6.402-3.651-5.367-9.837
			c0.976-5.831,3.582-8.376,8.284-7.589c2.581,0.432,3.952,1.569,5.136,3.402c0.376,0.572,0.836,0.867,1.331,0.95
			c1.061,0.178,2.052-0.528,2.223-1.555c0.066-0.388,0.018-0.76-0.194-1.231c-1.094-2.363-3.604-4.527-7.88-5.243
			c-7.034-1.177-11.739,2.179-13.141,10.556C221.74,330.584,225.148,334.971,232.183,336.146 M214.091,305.72
			c1.131,0.189,1.868-0.306,2.069-1.506c0.219-1.309-0.323-1.98-1.454-2.171c-1.131-0.188-1.862,0.271-2.081,1.579
			C212.424,304.824,212.96,305.531,214.091,305.72 M207.693,304.649c1.131,0.188,1.868-0.305,2.068-1.507
			c0.219-1.309-0.322-1.979-1.454-2.169c-1.132-0.189-1.862,0.27-2.081,1.578C206.026,303.754,206.562,304.46,207.693,304.649
			 M211.81,325.869l1.298,5.486c0.194,0.795,0.765,1.509,1.684,1.662c1.095,0.185,2.169-0.581,2.352-1.677
			c0.036-0.212,0.047-0.501-0.017-0.767l-4.941-21.721c-0.129-0.53-0.564-1.402-1.66-1.586s-1.791,0.499-2.086,0.959l-11.744,18.93
			c-0.147,0.229-0.23,0.507-0.266,0.719c-0.183,1.096,0.582,2.168,1.678,2.352c0.919,0.153,1.691-0.335,2.133-1.024l3.014-4.764
			L211.81,325.869z M211.058,321.893l-5.797-0.971l4.141-6.938L211.058,321.893z M186.392,307.299
			c2.297,0.385,2.95,2.347,2.63,4.257c-0.313,1.873-1.569,3.515-3.761,3.149l-4.772-0.799l1.236-7.389L186.392,307.299z
			 M182.184,317.896l4.984,9.737c0.277,0.52,0.866,0.908,1.466,1.009c1.131,0.188,2.205-0.577,2.394-1.707
			c0.065-0.389,0.03-0.831-0.217-1.309l-4.167-7.238c3.464,0.144,6.059-2.766,6.621-6.123c0.668-3.995-1.45-7.838-6.223-8.637
			l-6.751-1.13c-1.131-0.188-2.205,0.576-2.393,1.708l-3.342,19.972c-0.189,1.132,0.576,2.204,1.707,2.393
			c1.131,0.189,2.205-0.575,2.394-1.706l1.231-7.354L182.184,317.896z M163.062,303.394c2.155,0.361,3.292,1.824,2.901,4.157
			c-0.384,2.298-1.911,3.386-4.103,3.02l-4.384-0.733l1.201-7.176L163.062,303.394z M161.564,314.3
			c4.207,0.704,7.825-1.162,8.642-6.04c0.829-4.948-2.075-7.796-6.21-8.489l-6.752-1.129c-1.131-0.189-2.203,0.576-2.393,1.707
			l-3.343,19.972c-0.188,1.132,0.577,2.205,1.708,2.394c1.131,0.189,2.203-0.576,2.393-1.707l1.254-7.493L161.564,314.3z
			 M143.637,301.562c0.448,0.583,0.895,0.949,1.39,1.032c1.061,0.178,2.051-0.53,2.222-1.555c0.072-0.424-0.005-0.837-0.164-1.19
			c-1.078-2.251-3.934-4.073-7.469-4.665c-5.62-0.94-8.626,1.608-9.212,5.108c-1.425,8.519,11.874,8.31,11.009,13.471
			c-0.367,2.191-2.099,2.991-5.316,2.453c-2.438-0.408-4.111-1.923-5.348-3.656c-0.294-0.413-0.647-0.908-1.425-1.037
			c-1.025-0.173-2.015,0.533-2.192,1.594c-0.059,0.354-0.012,0.725,0.117,1.038c1.006,2.457,4.015,5.104,8.222,5.809
			c5.833,0.976,9.322-1.203,10.043-5.515c1.479-8.837-11.784-8.839-11.009-13.471c0.237-1.414,1.563-2.608,4.498-2.117
			C141.017,299.196,142.719,300.317,143.637,301.562 M112.868,294.995l8.978,1.503c1.025,0.171,1.975-0.505,2.146-1.531
			c0.171-1.024-0.506-1.974-1.53-2.146l-11.029-1.846c-1.132-0.189-2.205,0.576-2.393,1.708l-3.295,19.688
			c-0.19,1.131,0.576,2.203,1.707,2.393l11.418,1.911c1.025,0.172,1.974-0.506,2.146-1.53c0.171-1.025-0.506-1.975-1.531-2.146
			l-9.368-1.567l1.088-6.504l6.682,1.118c0.99,0.166,1.938-0.511,2.104-1.501c0.166-0.989-0.511-1.939-1.5-2.104l-6.681-1.118
			L112.868,294.995z M94.854,307.314c-1.615,1.184-3.553,1.478-6.169,1.039c-4.702-0.786-6.403-3.65-5.367-9.837
			c0.976-5.832,3.582-8.377,8.283-7.59c2.581,0.433,3.953,1.57,5.136,3.403c0.376,0.571,0.836,0.867,1.331,0.95
			c1.06,0.177,2.051-0.529,2.222-1.555c0.065-0.389,0.019-0.76-0.194-1.231c-1.094-2.363-3.603-4.527-7.88-5.243
			c-7.034-1.178-11.738,2.178-13.141,10.557c-1.449,8.66,1.96,13.046,8.994,14.223c3.783,0.633,7.795-0.331,9.871-2.309
			c0.513-0.459,0.778-0.96,0.915-1.773l0.946-5.655c0.171-1.025-0.641-2.033-1.63-2.199l-6.857-1.147
			c-0.99-0.166-1.939,0.511-2.105,1.501c-0.166,0.989,0.512,1.938,1.501,2.104l4.807,0.804L94.854,307.314z"/>
		<path fill="#F5CDD2" d="M441.574,317.732c0.146-0.884-0.471-1.75-1.354-1.897l-7.07-1.184c-0.884-0.146-1.75,0.471-1.897,1.354
			c-0.148,0.884,0.47,1.75,1.353,1.897l7.07,1.183C440.559,319.235,441.425,318.616,441.574,317.732 M422.313,307.314
			c0.447,0.584,0.895,0.949,1.39,1.032c1.061,0.178,2.051-0.528,2.222-1.553c0.072-0.426-0.005-0.838-0.163-1.191
			c-1.077-2.251-3.934-4.074-7.469-4.665c-5.62-0.94-8.627,1.608-9.213,5.108c-1.425,8.518,11.873,8.309,11.01,13.47
			c-0.366,2.192-2.099,2.993-5.316,2.454c-2.438-0.408-4.111-1.924-5.348-3.656c-0.295-0.413-0.646-0.909-1.425-1.039
			c-1.025-0.171-2.016,0.536-2.192,1.596c-0.06,0.354-0.013,0.725,0.116,1.036c1.006,2.458,4.015,5.106,8.222,5.811
			c5.832,0.976,9.322-1.202,10.044-5.514c1.479-8.838-11.784-8.841-11.01-13.471c0.237-1.414,1.564-2.61,4.497-2.119
			C419.693,304.95,421.395,306.071,422.313,307.314 M395.551,316.754c-1.614,1.183-3.553,1.477-6.168,1.039
			c-4.701-0.786-6.403-3.651-5.367-9.837c0.976-5.832,3.582-8.377,8.282-7.59c2.58,0.432,3.953,1.569,5.136,3.403
			c0.377,0.571,0.836,0.866,1.331,0.949c1.062,0.178,2.051-0.528,2.223-1.554c0.064-0.389,0.019-0.761-0.193-1.232
			c-1.095-2.362-3.604-4.527-7.881-5.243c-7.034-1.177-11.737,2.179-13.14,10.557c-1.45,8.66,1.959,13.046,8.994,14.224
			c3.781,0.632,7.795-0.331,9.87-2.309c0.513-0.46,0.778-0.961,0.914-1.773l0.947-5.656c0.171-1.024-0.642-2.033-1.632-2.198
			l-6.856-1.148c-0.991-0.166-1.939,0.512-2.105,1.502c-0.166,0.989,0.512,1.938,1.502,2.104l4.807,0.804L395.551,316.754z
			 M373.118,293.596c-1.096-0.184-2.168,0.582-2.352,1.678l-2.343,13.998l-7.925-16.916c-0.265-0.589-0.776-1.002-1.483-1.12
			c-1.097-0.184-2.169,0.582-2.353,1.678l-3.402,20.325c-0.183,1.096,0.583,2.168,1.679,2.353c1.096,0.183,2.168-0.582,2.352-1.678
			l2.331-13.928l7.907,16.804c0.266,0.59,0.843,1.05,1.514,1.162c1.097,0.183,2.169-0.583,2.352-1.679l3.401-20.324
			C374.979,294.852,374.215,293.779,373.118,293.596 M336.558,312.733c7.141,1.194,9.618-2.752,10.293-6.782l2.384-14.245
			c0.188-1.131-0.576-2.204-1.707-2.394c-1.132-0.189-2.205,0.576-2.394,1.708l-2.385,14.245c-0.359,2.156-1.594,4.53-5.588,3.86
			c-3.993-0.667-4.387-3.312-4.026-5.469l2.384-14.246c0.189-1.132-0.576-2.204-1.706-2.394c-1.133-0.188-2.205,0.576-2.394,1.707
			l-2.385,14.246C328.36,307,329.418,311.538,336.558,312.733 M322.91,289.191c0.989,0.165,1.938-0.512,2.104-1.502
			c0.165-0.99-0.512-1.938-1.501-2.105l-14.917-2.495c-0.989-0.166-1.939,0.511-2.104,1.501c-0.166,0.99,0.512,1.938,1.5,2.104
			l5.409,0.906l-3.082,18.416c-0.189,1.131,0.576,2.204,1.707,2.393c1.132,0.189,2.204-0.575,2.394-1.706l3.082-18.417
			L322.91,289.191z M296.354,299.137l1.299,5.486c0.194,0.795,0.766,1.509,1.684,1.662c1.097,0.184,2.169-0.581,2.353-1.677
			c0.036-0.212,0.048-0.501-0.018-0.767l-4.94-21.721c-0.13-0.53-0.565-1.403-1.66-1.586c-1.097-0.183-1.792,0.5-2.087,0.959
			l-11.744,18.93c-0.146,0.229-0.229,0.506-0.264,0.718c-0.184,1.097,0.581,2.169,1.677,2.353c0.919,0.153,1.691-0.335,2.133-1.025
			l3.015-4.763L296.354,299.137z M295.603,295.159l-5.797-0.97l4.141-6.938L295.603,295.159z M270.936,280.566
			c2.298,0.384,2.951,2.346,2.631,4.256c-0.312,1.874-1.568,3.516-3.761,3.15l-4.772-0.8l1.236-7.388L270.936,280.566z
			 M266.728,291.163l4.984,9.737c0.277,0.519,0.865,0.908,1.467,1.008c1.131,0.188,2.204-0.575,2.393-1.707
			c0.065-0.389,0.03-0.83-0.217-1.308l-4.167-7.238c3.464,0.143,6.059-2.767,6.621-6.124c0.669-3.994-1.45-7.837-6.222-8.636
			l-6.752-1.129c-1.131-0.19-2.203,0.575-2.393,1.707l-3.342,19.971c-0.189,1.133,0.576,2.205,1.708,2.394
			c1.13,0.189,2.203-0.575,2.393-1.707l1.23-7.353L266.728,291.163z M244.248,276.1l8.979,1.502
			c1.026,0.172,1.975-0.505,2.146-1.531c0.171-1.024-0.506-1.974-1.531-2.145l-11.028-1.845c-1.131-0.189-2.204,0.576-2.394,1.707
			l-3.295,19.689c-0.188,1.132,0.576,2.204,1.708,2.394l11.417,1.91c1.025,0.172,1.975-0.505,2.146-1.529
			c0.172-1.025-0.505-1.975-1.531-2.146l-9.367-1.567l1.089-6.504l6.681,1.118c0.99,0.165,1.938-0.512,2.104-1.502
			c0.166-0.99-0.512-1.938-1.501-2.104l-6.681-1.119L244.248,276.1z M222.219,293.09c5.09,0.853,8.144-1.544,8.866-5.857
			c0.461-2.757-0.244-4.837-2.724-6.305c1.568-0.465,3.03-2.037,3.42-4.37c0.544-3.252-0.879-6.47-6.217-7.363l-6.363-1.064
			c-1.132-0.189-2.205,0.576-2.394,1.707l-3.295,19.689c-0.189,1.132,0.576,2.204,1.707,2.393L222.219,293.09z M219.045,281.658
			l4.949,0.828c2.333,0.391,3.28,1.894,2.919,4.05c-0.354,2.121-1.569,3.299-4.079,2.879l-4.949-0.829L219.045,281.658z
			 M220.636,272.148l4.312,0.722c2.228,0.373,2.951,1.693,2.644,3.532c-0.296,1.767-1.428,2.886-3.655,2.513l-4.312-0.722
			L220.636,272.148z M208.347,270.02c0.99,0.166,1.938-0.512,2.105-1.501c0.166-0.99-0.512-1.939-1.501-2.104l-14.917-2.496
			c-0.99-0.166-1.938,0.511-2.105,1.501c-0.165,0.989,0.512,1.938,1.501,2.104l5.409,0.905l-3.083,18.417
			c-0.189,1.131,0.577,2.203,1.708,2.394c1.131,0.189,2.204-0.576,2.394-1.708l3.082-18.416L208.347,270.02z M183.113,267.286
			c0.448,0.584,0.895,0.949,1.39,1.032c1.06,0.178,2.051-0.528,2.222-1.553c0.071-0.425-0.004-0.836-0.163-1.191
			c-1.078-2.252-3.934-4.074-7.469-4.666c-5.62-0.94-8.626,1.609-9.212,5.108c-1.425,8.52,11.874,8.311,11.009,13.471
			c-0.367,2.192-2.099,2.993-5.316,2.454c-2.439-0.409-4.111-1.924-5.348-3.657c-0.294-0.412-0.647-0.907-1.425-1.038
			c-1.025-0.171-2.015,0.535-2.192,1.595c-0.059,0.354-0.012,0.725,0.117,1.037c1.006,2.458,4.015,5.105,8.222,5.809
			c5.833,0.977,9.322-1.201,10.044-5.514c1.479-8.837-11.785-8.84-11.009-13.471c0.237-1.414,1.563-2.609,4.497-2.118
			C180.493,264.922,182.194,266.042,183.113,267.286 M155.702,261.282c2.296,0.385,2.95,2.347,2.631,4.256
			c-0.313,1.873-1.57,3.516-3.762,3.149l-4.772-0.798l1.236-7.389L155.702,261.282z M151.493,271.879l4.985,9.737
			c0.276,0.519,0.865,0.908,1.466,1.009c1.131,0.188,2.204-0.577,2.394-1.708c0.065-0.388,0.03-0.83-0.217-1.308l-4.167-7.239
			c3.464,0.144,6.059-2.766,6.622-6.123c0.668-3.995-1.45-7.838-6.222-8.637l-6.752-1.129c-1.131-0.189-2.203,0.576-2.393,1.707
			l-3.342,19.973c-0.189,1.131,0.577,2.204,1.708,2.393c1.131,0.19,2.203-0.576,2.393-1.707l1.23-7.353L151.493,271.879z
			 M129.013,256.816l8.979,1.502c1.025,0.172,1.974-0.505,2.146-1.53c0.171-1.025-0.505-1.974-1.531-2.146l-11.028-1.846
			c-1.131-0.188-2.204,0.577-2.394,1.708l-3.295,19.689c-0.189,1.131,0.577,2.204,1.708,2.393l11.417,1.911
			c1.025,0.171,1.974-0.506,2.146-1.531c0.172-1.026-0.505-1.975-1.531-2.146l-9.367-1.567l1.088-6.505l6.681,1.118
			c0.99,0.166,1.939-0.511,2.104-1.5c0.165-0.99-0.512-1.938-1.502-2.105l-6.68-1.118L129.013,256.816z"/>
	</g>
	<path fill="#F5CDD2" d="M480.124,193.114c0.783,1.021,1.567,1.661,2.433,1.806c1.855,0.311,3.59-0.925,3.889-2.719
		c0.124-0.743-0.009-1.464-0.286-2.083c-1.885-3.94-6.884-7.129-13.069-8.165c-9.836-1.646-15.098,2.816-16.122,8.939
		c-2.495,14.908,20.777,14.542,19.266,23.573c-0.643,3.835-3.675,5.236-9.303,4.294c-4.27-0.714-7.195-3.366-9.358-6.399
		c-0.516-0.722-1.134-1.588-2.494-1.816c-1.794-0.3-3.527,0.937-3.838,2.792c-0.104,0.619-0.021,1.269,0.204,1.814
		c1.761,4.301,7.027,8.935,14.389,10.166c10.206,1.708,16.313-2.103,17.577-9.65c2.587-15.464-20.623-15.469-19.268-23.573
		c0.414-2.475,2.735-4.566,7.87-3.707C475.539,188.976,478.518,190.937,480.124,193.114 M426.175,180.715
		c8.166,1.366,11.348,7.051,9.63,17.319c-1.708,10.207-6.568,14.545-14.733,13.179c-8.166-1.367-11.348-7.051-9.64-17.257
		C413.15,183.687,418.01,179.349,426.175,180.715 M419.995,217.646c12.495,2.091,20.81-3.894,23.232-18.369
		c2.454-14.661-3.48-22.904-15.977-24.995c-12.495-2.091-20.789,3.771-23.242,18.432
		C401.586,207.188,407.499,215.555,419.995,217.646 M377.585,202.79l5.331-31.857c0.332-1.98-1.008-3.857-2.987-4.188
		c-1.979-0.332-3.857,1.008-4.188,2.988l-5.869,35.074c-0.331,1.979,0.904,3.713,2.946,4.054l18.311,3.064
		c2.041,0.342,3.702-0.843,4.023-2.761c0.311-1.856-0.864-3.579-2.906-3.92L377.585,202.79z M359.516,163.329
		c-1.918-0.321-3.795,1.018-4.115,2.936l-4.1,24.496l-13.87-29.602c-0.463-1.032-1.359-1.754-2.597-1.961
		c-1.917-0.321-3.795,1.019-4.116,2.936l-5.953,35.57c-0.319,1.917,1.019,3.795,2.937,4.115c1.918,0.321,3.796-1.019,4.116-2.936
		l4.079-24.373l13.838,29.406c0.464,1.031,1.475,1.836,2.649,2.033c1.917,0.321,3.795-1.018,4.116-2.936l5.952-35.569
		C362.772,165.526,361.434,163.649,359.516,163.329 M299.095,160.339l15.713,2.629c1.794,0.3,3.455-0.885,3.756-2.678
		c0.3-1.794-0.885-3.454-2.68-3.755l-19.3-3.23c-1.979-0.331-3.857,1.008-4.188,2.987l-5.766,34.456
		c-0.331,1.979,1.008,3.857,2.987,4.188l19.98,3.344c1.794,0.3,3.455-0.884,3.756-2.678c0.299-1.794-0.885-3.456-2.68-3.756
		l-16.392-2.742l1.903-11.383l11.692,1.958c1.732,0.289,3.394-0.895,3.683-2.627c0.29-1.732-0.896-3.393-2.627-3.683l-11.691-1.956
		L299.095,160.339z M277.589,156.613c1.731,0.291,3.393-0.894,3.683-2.626c0.29-1.732-0.895-3.393-2.627-3.682l-26.105-4.369
		c-1.732-0.29-3.393,0.894-3.683,2.627c-0.289,1.731,0.896,3.393,2.627,3.683l9.464,1.583l-5.393,32.229
		c-0.332,1.979,1.007,3.856,2.987,4.188c1.979,0.331,3.857-1.008,4.188-2.988l5.394-32.229L277.589,156.613z M233.43,151.831
		c0.783,1.021,1.565,1.662,2.432,1.806c1.856,0.311,3.588-0.925,3.89-2.719c0.124-0.743-0.01-1.464-0.289-2.083
		c-1.884-3.94-6.883-7.13-13.069-8.166c-9.835-1.646-15.097,2.816-16.122,8.94c-2.495,14.908,20.778,14.542,19.266,23.573
		c-0.641,3.836-3.674,5.236-9.303,4.294c-4.268-0.714-7.195-3.366-9.358-6.398c-0.516-0.722-1.133-1.589-2.495-1.817
		c-1.793-0.3-3.526,0.937-3.837,2.792c-0.104,0.619-0.021,1.268,0.205,1.815c1.76,4.301,7.026,8.935,14.388,10.166
		c10.207,1.708,16.313-2.104,17.577-9.65c2.587-15.465-20.623-15.47-19.266-23.574c0.414-2.475,2.735-4.566,7.87-3.707
		C228.845,147.693,231.822,149.654,233.43,151.831 M179.48,139.433c8.166,1.367,11.348,7.05,9.629,17.318
		c-1.707,10.208-6.567,14.545-14.732,13.179c-8.165-1.367-11.348-7.05-9.64-17.257C166.456,142.404,171.314,138.066,179.48,139.433
		 M173.3,176.363c12.496,2.09,20.811-3.895,23.233-18.37c2.453-14.661-3.48-22.903-15.976-24.995
		c-12.496-2.091-20.79,3.771-23.243,18.432C154.892,165.906,160.805,174.272,173.3,176.363 M130.035,128.615
		c0.332-1.979-1.008-3.857-2.987-4.188c-1.979-0.332-3.857,1.008-4.188,2.988l-5.932,35.445c-0.331,1.979,1.008,3.857,2.988,4.188
		c1.98,0.332,3.856-1.008,4.188-2.987l1.987-11.877l4.148-3.122l9.792,19.762c0.381,0.764,1.164,1.786,2.648,2.034
		c1.917,0.321,3.795-1.019,4.116-2.936c0.124-0.743,0.001-1.527-0.339-2.156l-10.555-20.907l13.742-10.674
		c0.66-0.525,1.155-1.206,1.321-2.195c0.321-1.917-0.967-3.723-2.885-4.044c-0.928-0.155-1.918,0.061-2.794,0.741l-17.621,14.094
		L130.035,128.615z"/>
	<path fill="none" stroke="#F5CDD2" stroke-width="9.729" stroke-linecap="round" stroke-linejoin="round" d="M238.482,446.021
		c7.438,0.034,13.786,6.069,15.473,14.083c4.203-7.027,12.17-10.668,19.214-8.278c8.107,2.749,11.915,12.432,8.509,21.627
		c-3.306,10.543-34.053,26.268-34.053,26.268s-23.4-24.785-24.229-36.02C223.169,453.896,229.923,445.981,238.482,446.021z"/>
	<g>
		<path fill="#F5CDD2" d="M381.548,380.891l-2.386,2.66c-0.551,0.617-1.054,0.496-1.567-0.001c-0.514-0.496-0.538-1.022-0.048-1.5
			l2.544-2.485l-3.104-1.079c-0.769-0.314-0.793-0.842-0.489-1.537c0.297-0.659,0.781-0.877,1.434-0.543l3.073,1.484l0.432-3.249
			c0.098-0.805,0.605-0.944,1.296-0.828c0.689,0.115,1.125,0.412,0.955,1.205l-0.649,3.212l3.388-0.403
			c0.728-0.103,1.113,0.261,1.181,0.981c0.059,0.756-0.135,1.246-0.964,1.294l-3.285,0.01l1.596,3.178
			c0.307,0.611,0.113,1.101-0.534,1.403c-0.648,0.302-1.161,0.253-1.482-0.51L381.548,380.891z"/>
	</g>
	<g>
		<path fill="#F5CDD2" d="M401.58,504.492l-0.139,1.938c-0.03,0.448-0.286,0.563-0.672,0.521c-0.386-0.041-0.572-0.258-0.521-0.627
			l0.263-1.914l-1.691,0.57c-0.436,0.121-0.621-0.097-0.723-0.496c-0.093-0.381,0.043-0.637,0.435-0.711l1.813-0.387l-0.896-1.539
			c-0.227-0.378-0.056-0.606,0.278-0.787c0.335-0.18,0.621-0.198,0.812,0.199l0.792,1.595l1.318-1.302
			c0.279-0.287,0.566-0.26,0.834,0.027c0.277,0.305,0.358,0.579,0.019,0.876l-1.407,1.1l1.744,0.831
			c0.336,0.16,0.416,0.436,0.238,0.781c-0.177,0.346-0.414,0.496-0.805,0.275L401.58,504.492z"/>
		<path fill="#F5CDD2" d="M415.16,494.135l5.937,9.854c0.32,0.532,0.144,1.245-0.389,1.565c-0.325,0.196-0.737,0.211-1.063,0.057
			l-9.453-4.256l4.067,6.752c0.319,0.531,0.143,1.246-0.39,1.566c-0.53,0.32-1.244,0.143-1.564-0.389l-5.936-9.854
			c-0.32-0.532-0.143-1.245,0.389-1.565c0.343-0.207,0.709-0.217,1.036-0.064l9.501,4.297l-4.088-6.786
			c-0.32-0.531-0.143-1.245,0.389-1.565S414.841,493.604,415.16,494.135z"/>
		<path fill="#F5CDD2" d="M426.881,500.165c0.353,0.534,0.205,1.255-0.33,1.606c-0.533,0.354-1.254,0.206-1.607-0.329l-6.312-9.566
			c-0.354-0.534-0.206-1.255,0.328-1.607c0.535-0.353,1.254-0.204,1.607,0.329L426.881,500.165z"/>
		<path fill="#F5CDD2" d="M427.098,493.262c-2.824-3.809-2.352-6.999,0.846-9.371c1.944-1.443,3.786-1.613,5.16-1.139
			c0.271,0.098,0.439,0.223,0.57,0.4c0.346,0.465,0.246,1.137-0.236,1.495c-0.225,0.167-0.521,0.237-0.896,0.167
			c-1.195-0.234-2.185-0.123-3.357,0.746c-2.138,1.586-2.123,3.619-0.157,6.27c2.087,2.812,3.896,3.238,6.034,1.652
			c1.189-0.882,1.629-1.632,1.816-2.992c0.066-0.447,0.203-0.698,0.428-0.865c0.482-0.357,1.154-0.258,1.512,0.224
			c0.144,0.192,0.197,0.401,0.197,0.602c-0.009,1.601-0.994,3.429-2.714,4.704C433.103,497.525,430.02,497.197,427.098,493.262z"/>
		<path fill="#F5CDD2" d="M451.094,481.984c0.404,0.496,0.329,1.229-0.167,1.633s-1.228,0.328-1.632-0.168l-3.043-3.736
			l-4.434,3.611l3.042,3.736c0.404,0.496,0.329,1.228-0.167,1.631c-0.496,0.404-1.228,0.33-1.632-0.166l-7.234-8.885
			c-0.403-0.496-0.329-1.228,0.167-1.632c0.496-0.403,1.229-0.329,1.632,0.167l2.854,3.505l4.435-3.611l-2.854-3.505
			c-0.404-0.496-0.328-1.228,0.168-1.631c0.496-0.404,1.227-0.329,1.631,0.167L451.094,481.984z"/>
		<path fill="#F5CDD2" d="M451.851,467.345l7.021,7.701c0.431,0.473,0.397,1.208-0.075,1.639c-0.474,0.431-1.209,0.397-1.64-0.075
			l-7.021-7.701l-2.263,2.062c-0.413,0.378-1.062,0.348-1.44-0.066c-0.377-0.413-0.348-1.063,0.066-1.441l6.238-5.688
			c0.413-0.377,1.063-0.348,1.441,0.067c0.378,0.413,0.347,1.063-0.066,1.44L451.851,467.345z"/>
		<path fill="#F5CDD2" d="M471.064,463.072c0.467,0.438,0.49,1.174,0.051,1.641c-0.438,0.466-1.173,0.488-1.639,0.05l-8.235-7.737
			c-0.467-0.438-0.489-1.173-0.052-1.639l4.273-4.548c0.396-0.423,1.047-0.443,1.471-0.046c0.422,0.397,0.441,1.047,0.045,1.471
			l-3.479,3.701l2.697,2.533l2.588-2.754c0.383-0.408,1.033-0.429,1.441-0.045c0.408,0.383,0.428,1.033,0.045,1.441l-2.588,2.755
			L471.064,463.072z"/>
		<path fill="#F5CDD2" d="M468.35,444.025c-0.566-0.478-0.578-0.959-0.164-1.448c0.412-0.489,0.889-0.558,1.454-0.08
			c0.521,0.438,0.548,0.933,0.134,1.422C469.361,444.408,468.869,444.464,468.35,444.025z M475.619,453.12l-6.16-5.2
			c-0.488-0.413-0.551-1.146-0.137-1.635c0.412-0.488,1.145-0.551,1.634-0.138l6.159,5.199c0.934,0.787,2.314,1.353,3.773-0.375
			c1.457-1.728,0.67-2.995-0.264-3.782l-6.158-5.2c-0.49-0.413-0.552-1.146-0.139-1.634c0.412-0.49,1.146-0.551,1.635-0.139
			l6.159,5.2c1.743,1.471,2.933,3.784,0.325,6.87C479.842,455.375,477.361,454.591,475.619,453.12z M470.686,441.258
			c-0.566-0.477-0.578-0.958-0.165-1.447c0.413-0.488,0.89-0.557,1.455-0.08c0.52,0.438,0.547,0.934,0.134,1.422
			C471.697,441.642,471.205,441.697,470.686,441.258z"/>
		<path fill="#F5CDD2" d="M485.701,439.572l3.322,2.504c0.512,0.385,0.614,1.113,0.229,1.624c-0.385,0.511-1.113,0.614-1.624,0.229
			l-9.026-6.798c-0.51-0.386-0.613-1.114-0.229-1.625l2.299-3.051c1.625-2.156,4.072-2.216,5.877-0.855
			c1.519,1.143,2.29,3.176,1.326,4.854l4.656-0.198c0.301,0.001,0.527,0.097,0.703,0.229c0.512,0.385,0.615,1.113,0.229,1.625
			c-0.204,0.271-0.549,0.463-0.877,0.465l-6.104-0.039L485.701,439.572z M480.732,435.83l3.34,2.516l1.623-2.156
			c0.747-0.99,0.257-2.036-0.59-2.674c-0.862-0.65-2.002-0.832-2.784,0.207L480.732,435.83z"/>
		<path fill="#F5CDD2" d="M492.957,417.836c-0.891,1.4-0.564,2.342,0.111,2.771c2.21,1.405,5.096-5.409,9.316-2.728
			c2.059,1.309,2.419,3.575,0.648,6.36c-1.276,2.008-3.291,2.979-4.772,2.962c-0.188-0.002-0.39-0.059-0.559-0.166
			c-0.507-0.321-0.653-0.984-0.343-1.474c0.236-0.371,0.566-0.445,0.844-0.506c1.159-0.26,2.301-0.789,3.041-1.954
			c0.977-1.535,0.942-2.601-0.104-3.265c-2.464-1.566-5.249,5.312-9.316,2.728c-1.671-1.062-2.327-3.161-0.621-5.845
			c1.072-1.688,2.63-2.76,4.022-2.823c0.215-0.005,0.443,0.046,0.646,0.175c0.49,0.311,0.637,0.974,0.314,1.479
			c-0.149,0.236-0.435,0.388-0.832,0.489C494.515,416.242,493.568,416.873,492.957,417.836z"/>
		<path fill="#F5CDD2" d="M503.846,414.021l-7.033-3.938c-0.559-0.312-0.758-1.021-0.444-1.58c0.312-0.557,1.021-0.757,1.579-0.444
			l7.032,3.938c1.064,0.596,2.528,0.888,3.633-1.084c1.104-1.973,0.089-3.066-0.975-3.664l-7.033-3.938
			c-0.558-0.312-0.758-1.021-0.445-1.579s1.021-0.758,1.579-0.444l7.033,3.938c1.989,1.114,3.595,3.16,1.62,6.684
			C508.418,415.436,505.836,415.136,503.846,414.021z"/>
		<path fill="#F5CDD2" d="M515.314,402.111c-0.281,0.575-0.977,0.813-1.552,0.532l-10.006-4.893
			c-0.575-0.281-0.813-0.977-0.532-1.552l1.582-3.233c1.326-2.712,3.273-2.962,4.926-2.153c1.186,0.58,1.794,1.611,1.793,2.523
			c1.18-1.093,2.404-1.139,3.806-0.453c2.192,1.07,2.987,3.085,1.723,5.672L515.314,402.111z M508.674,397.574l1.072-2.193
			c0.553-1.131,0.135-1.914-0.764-2.354c-0.934-0.457-1.756-0.279-2.309,0.852l-1.071,2.192L508.674,397.574z M513.955,400.156
			l1.23-2.516c0.623-1.275,0.188-2.111-0.891-2.639c-1.096-0.536-2.051-0.268-2.631,0.917l-1.229,2.515L513.955,400.156z"/>
		<path fill="#F5CDD2" d="M521.543,383.357c0.26-0.607,0.883-0.842,1.434-0.604c0.57,0.244,0.812,0.849,0.551,1.455l-2.332,5.442
			c-0.26,0.606-0.891,0.859-1.479,0.606l-10.425-4.468c-0.589-0.253-0.862-0.936-0.609-1.524s0.935-0.86,1.523-0.608l9.469,4.058
			L521.543,383.357z"/>
		<path fill="#F5CDD2" d="M523.113,375.732l2.299,2.146c0.332,0.314,0.52,0.789,0.34,1.277c-0.215,0.581-0.883,0.889-1.464,0.674
			c-0.112-0.041-0.255-0.115-0.366-0.219l-9.156-8.404c-0.222-0.211-0.523-0.662-0.31-1.244c0.214-0.581,0.737-0.729,1.042-0.745
			l12.42-0.452c0.152-0.008,0.31,0.028,0.422,0.07c0.582,0.215,0.89,0.882,0.676,1.464c-0.18,0.487-0.63,0.727-1.086,0.75
			l-3.143,0.142L523.113,375.732z M518.021,371.277l3.373,2.99l1.134-3.077L518.021,371.277z"/>
		<path fill="#F5CDD2" d="M521.245,356.604l9.962,3.058c0.611,0.188,0.957,0.837,0.77,1.449c-0.188,0.612-0.838,0.956-1.45,0.769
			l-9.962-3.059l-0.898,2.926c-0.164,0.535-0.739,0.841-1.274,0.677c-0.536-0.165-0.841-0.739-0.676-1.274l2.478-8.069
			c0.164-0.536,0.738-0.841,1.273-0.677s0.841,0.74,0.676,1.275L521.245,356.604z"/>
		<path fill="#F5CDD2" d="M533.989,349.741c0.618,0.163,0.989,0.8,0.825,1.419c-0.163,0.619-0.799,0.988-1.418,0.825l-11.085-2.927
			c-0.618-0.164-0.989-0.799-0.825-1.418c0.163-0.619,0.799-0.99,1.418-0.826L533.989,349.741z"/>
		<path fill="#F5CDD2" d="M536.394,341.58l-12.147,1.977c-0.15,0.029-0.271,0.021-0.447-0.017c-0.625-0.138-1.021-0.757-0.884-1.382
			c0.124-0.566,0.554-0.842,0.892-0.89l9.752-1.417l-8.257-5.381c-0.267-0.182-0.56-0.614-0.436-1.181
			c0.138-0.626,0.757-1.021,1.382-0.884c0.176,0.039,0.289,0.084,0.412,0.172l10.197,6.893c0.357,0.242,0.62,0.627,0.491,1.215
			C537.219,341.271,536.819,341.51,536.394,341.58z"/>
		<path fill="#F5CDD2" d="M531.826,327.549l0.618-3.73c0.091-0.553,0.621-0.932,1.173-0.84c0.553,0.092,0.932,0.621,0.84,1.174
			l-0.617,3.73l3.631,0.601l0.867-5.229c0.094-0.572,0.623-0.951,1.195-0.855c0.572,0.094,0.951,0.623,0.856,1.195l-1.056,6.375
			c-0.105,0.631-0.703,1.059-1.334,0.955l-10.993-1.822c-0.632-0.104-1.06-0.703-0.956-1.334l1.021-6.157
			c0.095-0.571,0.624-0.951,1.196-0.856c0.571,0.096,0.95,0.624,0.856,1.197l-0.831,5.012L531.826,327.549z"/>
	</g>
</g>
</svg>
