<svg xmlns="http://www.w3.org/2000/svg" height="100" width="100" version="1.1" viewBox="0 0 100 100">
	<g>
		<path d="m50.05 53.097c-1.617-1.2799-3.6939-3.2199-3.91-4.1024-0.11403-0.59252-0.0012-1.1853 0.30751-1.6261 0.16885-0.24081 0.47174-0.54495 0.96199-0.62417 0.0776-0.01264 0.1537-0.01875 0.23018-0.01875 0.7183 0 1.4083 0.53431 1.719 1.33 0.10225 0.26371 0.35683 0.43806 0.6397 0.43806h0.000933c0.28274 0 0.53757-0.17373 0.64082-0.43694 0.3452-0.88114 1.1437-1.4502 1.9501-1.3123 0.49013 0.07925 0.79452 0.38287 0.96211 0.62367 0.30965 0.44132 0.42154 1.0336 0.30202 1.6609-0.12229 0.88377-2.1758 2.8-3.8044 4.0681m23.743-3.786h-18.593c0.0036-0.02002 0.0091-0.04056 0.0119-0.06007 0.18274-0.95549-0.0119-1.9299-0.53218-2.6738-0.45359-0.64784-1.1179-1.0713-1.8707-1.1934-1.0417-0.17034-2.0951 0.27648-2.8091 1.1032-0.71367-0.82606-1.7695-1.2708-2.8101-1.1032-0.7526 0.12216-1.417 0.54558-1.8708 1.194-0.52017 0.74396-0.71479 1.7177-0.52442 2.7075 0.002 0.0085 0.0054 0.01714 0.0076 0.02579h-18.598c-0.37949 0-0.68802 0.30802-0.68802 0.68801 0 0.38024 0.30853 0.688 0.68802 0.688h19.35c1.2352 1.6272 3.516 3.4005 4.0749 3.8241 0.12378 0.093 0.2701 0.1398 0.41629 0.1398 0.14406 0 0.28812-0.04522 0.41065-0.13554 0.57162-0.4248 2.8895-2.1965 4.0702-3.8283h19.267c0.37962 0 0.68801-0.30777 0.68801-0.688 0-0.37999-0.3084-0.68801-0.68801-0.68801" fill="#fabfcd"/>
		<path d="m86.803 69.562c0.34945 0.16972 0.76861 0.02588 0.93858-0.32254 0.1686-0.34832 0.02367-0.76762-0.32492-0.93746l-2.4618-1.1977 1.5136-3.1154 2.4618 1.1954c0.3497 0.16985 0.76998 0.02367 0.93983-0.32253 0.16759-0.35058 0.02359-0.76962-0.3268-0.93971l-6.238-3.032c-0.34944-0.16986-0.76974-0.02367-0.93858 0.32253-0.16885 0.3482-0.02478 0.76974 0.32592 0.93959l2.623 1.2748-1.5137 3.1178-2.6253-1.2773c-0.34833-0.16972-0.76975-0.02359-0.93833 0.32492-0.16885 0.3462-0.02266 0.76748 0.32541 0.93746zm-9.782 6.4569 1.4083-1.3976 1.089 2.5026zm-1.2386-0.57424-1.762-0.72681c-0.25707-0.10312-0.56435-0.0861-0.78814 0.13555-0.26659 0.26434-0.26771 0.70953-0.0017 0.97613 0.05031 0.05167 0.12792 0.10964 0.21277 0.14619l6.9342 2.9241c0.17197 0.06669 0.49664 0.12041 0.76323-0.14393 0.2656-0.26447 0.21503-0.58914 0.14632-0.7611l-2.8778-6.9536c-0.03453-0.08383-0.09374-0.16334-0.14531-0.21303-0.26459-0.26659-0.71067-0.2686-0.97613-0.0042-0.22379 0.22128-0.24194 0.5288-0.13968 0.78676l0.71354 1.7674-2.0791 2.0663zm-8.9468 4.0702c-2.1799 1.1094-2.0618 2.6768-1.4364 3.9089l2.2085 4.3496c0.17523 0.3462 0.59977 0.48388 0.94385 0.30752 0.34631-0.17411 0.48374-0.5979 0.30739-0.94172l-2.2104-4.3517c-0.33418-0.66023-0.47511-1.5525 0.74621-2.1718 1.2213-0.61942 1.8578 0.02155 2.1931 0.67949l2.2092 4.3517c0.17523 0.34408 0.59878 0.48388 0.94498 0.30764 0.34394-0.17447 0.48161-0.59789 0.30639-0.94396l-2.209-4.354c-0.626-1.23-1.822-2.251-4.004-1.143m-11.485 11.161c-0.3343 0.04921-0.56974 0.36748-0.51942 0.70091 0.04956 0.3353 0.36672 0.56974 0.70128 0.51804l5.0538-0.75046c0.33543-0.0493 0.5696-0.36535 0.52042-0.70091-0.05171-0.33543-0.36786-0.5696-0.70316-0.52017l-1.8319 0.27285-0.92895-6.2395c-0.05707-0.38274-0.41504-0.64933-0.79666-0.59125-0.38386 0.05804-0.64834 0.4149-0.59126 0.79764l0.92895 6.2395zm-7.8607-5.2227-0.96549 6.1601c-0.06007 0.38262 0.20214 0.74158 0.58487 0.80203 0.38275 0.0599 0.74183-0.20213 0.80191-0.58513l1.0622-6.7812c0.0602-0.38249-0.18172-0.71592-0.57636-0.77637l-3.54-0.555c-0.39551-0.06228-0.7138 0.1701-0.77162 0.53983-0.05619 0.35908 0.17398 0.68801 0.56861 0.75047zm-11.921 3.6337c-0.14281 0.36134 0.03329 0.76975 0.3925 0.91368 0.35896 0.14205 0.76762-0.03419 0.91167-0.39352l2.5673-6.4438c0.14406-0.3611-0.03229-0.76987-0.3915-0.9138-0.36008-0.14193-0.76874 0.03445-0.91154 0.3935zm-7.1309-4.1068-2.5005-1.7909c-0.28599-0.20438-0.67399-0.13993-0.87725 0.14618-0.20426 0.28362-0.13981 0.673 0.14519 0.87727l3.0713 2.1995c0.31504 0.22579 0.7526 0.15256 0.97851-0.16347l3.9269-5.4827c0.22579-0.31378 0.15282-0.75472-0.16221-0.98039l-3.179-2.275c-0.28587-0.20426-0.67411-0.1398-0.87837 0.14393-0.20402 0.28574-0.13956 0.673 0.14619 0.87727l2.6094 1.8685-1.2998 1.8126-1.8599-1.331c-0.2751-0.19788-0.66436-0.13342-0.85998 0.14193-0.19775 0.27497-0.1333 0.66448 0.14205 0.85986l1.8606 1.3331zm-9.2841-7.7597-0.88152-1.1869c-0.45596-0.61266-0.32254-1.1051 0.184-1.4814 0.4865-0.36134 1.0233-0.36759 1.479 0.24507l0.88214 1.1869zm2.6146-1.9436-1.0116-1.3613c-0.47686-0.64283-0.35596-1.2297 0.23744-1.6707 0.58487-0.43418 1.1562-0.43656 1.6691 0.25396l1.0116 1.363zm1.9045-3.5284c-1.0391-1.3976-2.3424-1.5308-3.5294-0.64959-0.75847 0.56361-1.0745 1.2343-0.81429 2.1719-0.49039-0.2537-1.2144-0.21277-1.8563 0.26422-0.89377 0.66448-1.3013 1.7805-0.21002 3.2491l1.2987 1.7503c0.23092 0.3094 0.67186 0.37398 0.98201 0.14394l5.4156-4.0229c0.30953-0.23017 0.37511-0.67074 0.14407-0.98038zm-11.023-4.7949-1.1879-2.8359c-0.13656-0.32467-0.49989-0.47511-0.82356-0.33982-0.32355 0.13555-0.47261 0.50114-0.33693 0.82368l1.4587 3.4854c0.14932 0.35671 0.5611 0.5268 0.91806 0.37623l6.222-2.6062c0.35683-0.15032 0.52504-0.56098 0.37498-0.91806l-1.5098-3.6055c-0.13554-0.32492-0.49988-0.47299-0.82368-0.33757-0.3233 0.13543-0.47236 0.49877-0.33681 0.82357l1.2396 2.9583-2.0566 0.86236-0.88376-2.1115c-0.1313-0.31377-0.49539-0.46222-0.80792-0.33105-0.31165 0.12904-0.46172 0.49451-0.33068 0.80616l0.88439 2.1115z" fill="#444141"/>
		<path d="m13.197 30.438c-0.34945-0.16985-0.76974-0.02477-0.93796 0.32342-0.16997 0.34732-0.02427 0.76774 0.32467 0.93758l2.4614 1.1965-1.5147 3.1165-2.4616-1.1965c-0.34882-0.16985-0.76974-0.02367-0.93908 0.32367-0.16822 0.34944-0.02303 0.76862 0.32579 0.93858l6.2384 3.0328c0.34908 0.16859 0.76999 0.02359 0.93821-0.3238 0.16922-0.34819 0.02403-0.76861-0.32492-0.93846l-2.6246-1.276 1.5148-3.1166 2.6248 1.2763c0.3487 0.16972 0.76924 0.02452 0.93896-0.32379 0.16834-0.34732 0.02303-0.76861-0.32554-0.93746zm9.781-6.4568-1.4079 1.3986-1.0889-2.5027zm1.2379 0.57512 1.7629 0.72568c0.2562 0.10313 0.5656 0.08711 0.78826-0.13442 0.26672-0.26446 0.26772-0.70953 0.0021-0.976-0.0507-0.05167-0.12816-0.11077-0.21416-0.14644l-6.932-2.924c-0.17197-0.06856-0.49664-0.12128-0.76285 0.14319-0.26647 0.26558-0.21603 0.59025-0.14782 0.76223l2.879 6.9525c0.03392 0.08486 0.09375 0.16321 0.14519 0.2139 0.26409 0.26659 0.71004 0.26884 0.97677 0.0034 0.22328-0.22153 0.2408-0.52893 0.13868-0.78701l-0.714-1.765 2.078-2.066zm8.9468-4.0712c2.1813-1.1073 2.0639-2.6768 1.4385-3.9078l-2.2092-4.3499c-0.17547-0.3462-0.59902-0.48474-0.94396-0.3084-0.34519 0.17511-0.48287 0.59752-0.30865 0.94272l2.2103 4.3507c0.33531 0.66011 0.47624 1.5524-0.74408 2.1727-1.2212 0.61929-1.8586-0.02121-2.1931-0.67938l-2.2103-4.3519c-0.1761-0.34507-0.59765-0.48375-0.94384-0.3084-0.34395 0.17523-0.4815 0.59878-0.30741 0.94472l2.2103 4.3511c0.62455 1.2308 1.821 2.2511 4.0014 1.1437m11.487-11.16c0.334-0.0495 0.57-0.3667 0.519-0.7012-0.049-0.334-0.366-0.5686-0.701-0.518l-5.053 0.7513c-0.33555 0.049721-0.56998 0.36573-0.52042 0.70116 0.04931 0.3353 0.36547 0.56974 0.70204 0.51917l1.8319-0.27298 0.92882 6.2405c0.05695 0.38287 0.41517 0.64846 0.79654 0.59151 0.38386-0.05804 0.64946-0.41516 0.59138-0.79878l-0.929-6.2396zm7.8617 5.2237 0.96549-6.1601c0.058-0.3828-0.203-0.7428-0.585-0.8032-0.382-0.0599-0.742 0.2022-0.803 0.5849l-1.0624 6.7827c-0.06133 0.38249 0.1816 0.71467 0.57524 0.77613l3.5412 0.55459c0.39552 0.06143 0.71392-0.16971 0.77188-0.54069 0.05569-0.35796-0.1741-0.68801-0.56973-0.74921zm11.92-3.6349c0.14406-0.36008-0.03228-0.76961-0.3915-0.91255-0.36008-0.14319-0.76862 0.03335-0.91167 0.39338l-2.5681 6.4441c-0.14306 0.36008 0.03116 0.76861 0.39226 0.91254 0.35908 0.1432 0.76761-0.03335 0.91167-0.39338zm7.1298 4.1078 2.5028 1.7901c0.28362 0.20439 0.67274 0.1408 0.87726-0.14506 0.20401-0.28474 0.13956-0.67299-0.14644-0.8785l-3.0703-2.1982c-0.31615-0.2258-0.75371-0.15283-0.97939 0.1622l-3.9272 5.4827c-0.2258 0.31502-0.15258 0.75472 0.16234 0.98038l3.179 2.2761c0.286 0.20426 0.67399 0.1398 0.87938-0.14519 0.20302-0.28487 0.1398-0.673-0.14719-0.87726l-2.6094-1.8684 1.2987-1.8125 1.8612 1.332c0.27486 0.19787 0.6631 0.13342 0.8611-0.14193 0.19651-0.27523 0.13306-0.66448-0.14305-0.8611l-1.8612-1.3321zm9.2853 7.7597 0.88239 1.187c0.45596 0.61279 0.32253 1.1042-0.18487 1.4803-0.48601 0.36134-1.0234 0.36759-1.4792-0.24382l-0.881-1.187zm-2.6146 1.9428 1.0116 1.3621c0.47723 0.64183 0.35583 1.23-0.23756 1.6708-0.58388 0.43306-1.1557 0.43544-1.6696-0.25495l-1.0106-1.362zm-1.9039 3.5283c1.0386 1.3988 2.3415 1.5311 3.5283 0.65059 0.75885-0.56336 1.075-1.2353 0.81479-2.1729 0.4904 0.25395 1.2148 0.21303 1.8566-0.26422 0.89352-0.66348 1.3008-1.7804 0.20965-3.2478l-1.2987-1.7503c-0.23118-0.31064-0.67075-0.37511-0.98252-0.14393l-5.4141 4.0217c-0.31053 0.23105-0.37611 0.67073-0.14394 0.98164zm11.023 4.7959 1.1879 2.836c0.13655 0.32355 0.49877 0.47424 0.82343 0.3387 0.32367-0.13555 0.47299-0.4999 0.33644-0.82357l-1.4588-3.4842c-0.14932-0.35796-0.5611-0.5268-0.91805-0.37624l-6.2225 2.605c-0.35571 0.15044-0.52468 0.56097-0.37412 0.91806l1.5096 3.6068c0.1353 0.32467 0.50077 0.47286 0.8233 0.33744 0.32468-0.13543 0.47299-0.49877 0.33769-0.82344l-1.2406-2.9597 2.0574-0.86098 0.88401 2.1114c0.13104 0.3129 0.49438 0.4611 0.80841 0.33104 0.31053-0.13004 0.4601-0.49438 0.32893-0.80728l-0.88402-2.1113z" fill="#444141"/>
		<path d="m86.376 50c0 0.98477 0.79879 1.7837 1.7837 1.7837 0.98528 0 1.7837-0.79891 1.7837-1.7837 0-0.9849-0.7984-1.7833-1.7837-1.7833-0.98489 0-1.7837 0.79841-1.7837 1.7833" fill="#fabfcd"/>
		<path d="m10.056 49.985c-0.0088 0.98465 0.78313 1.7907 1.7678 1.7992 0.98539 0.0085 1.7908-0.78314 1.7993-1.768 0.0087-0.98477-0.78276-1.7904-1.7679-1.7989-0.98489-0.0087-1.7907 0.78301-1.7992 1.7678" fill="#fabfcd"/>
	</g>
</svg>
