<?xml version="1.0" encoding="UTF-8" standalone="no"?>
<!-- Generator: Adobe Illustrator 16.0.4, SVG Export Plug-In . SVG Version: 6.00 Build 0)  -->

<svg xmlns:dc="http://purl.org/dc/elements/1.1/" xmlns:cc="http://creativecommons.org/ns#" xmlns:rdf="http://www.w3.org/1999/02/22-rdf-syntax-ns#" xmlns:svg="http://www.w3.org/2000/svg" xmlns="http://www.w3.org/2000/svg" xmlns:sodipodi="http://sodipodi.sourceforge.net/DTD/sodipodi-0.dtd" xmlns:inkscape="http://www.inkscape.org/namespaces/inkscape" version="1.1" x="0px" y="0px" width="477.187px" height="47.333px" viewBox="0 0 477.187 47.333" enable-background="new 0 0 477.187 47.333" xml:space="preserve" id="svg2" inkscape:version="0.91 r13725" sodipodi:docname="logo.svg"><metadata id="metadata60"><rdf:RDF><cc:Work rdf:about=""><dc:format>image/svg+xml</dc:format><dc:type rdf:resource="http://purl.org/dc/dcmitype/StillImage" /><dc:title></dc:title></cc:Work></rdf:RDF></metadata><defs id="defs58" /><sodipodi:namedview pagecolor="#5b4bcd" bordercolor="#666666" borderopacity="1" objecttolerance="10" gridtolerance="10" guidetolerance="10" inkscape:pageopacity="0" inkscape:pageshadow="2" inkscape:window-width="1920" inkscape:window-height="1017" id="namedview56" showgrid="false" inkscape:zoom="1.6094319" inkscape:cx="236.18725" inkscape:cy="-77.403981" inkscape:window-x="0" inkscape:window-y="30" inkscape:window-maximized="1" inkscape:current-layer="svg2" /><path d="m 34.976,43.011 c 0,2.16 -1.756,3.916 -3.917,3.916 -2.161,0 -3.916,-1.756 -3.916,-3.916 l 0,-16.273 -19.31,0 0,16.272 c 0,2.16 -1.756,3.916 -3.917,3.916 C 1.755,46.926 0,45.171 0,43.011 L 0,4.326 C 0,2.166 1.756,0.41 3.917,0.41 c 2.161,0 3.917,1.756 3.917,3.916 l 0,15.256 19.311,0 0,-15.256 c 0,-2.16 1.755,-3.916 3.916,-3.916 2.161,0 3.917,1.756 3.917,3.916 l 0,38.685 z" id="path34" inkscape:connector-curvature="0" style="fill:#ffffff" /><path d="m 67.458,34.571 -4.119,9.791 c -0.608,1.418 -1.891,2.564 -3.646,2.564 -2.093,0 -3.849,-1.756 -3.849,-3.848 0,-0.406 0.068,-0.945 0.27,-1.418 L 72.049,2.84 c 0.405,-0.945 1.485,-2.431 3.579,-2.431 2.093,0 3.173,1.486 3.579,2.431 l 15.935,38.82 c 0.203,0.473 0.27,1.012 0.27,1.418 0,2.092 -1.755,3.848 -3.849,3.848 -1.755,0 -3.039,-1.146 -3.646,-2.564 l -4.119,-9.791 -16.34,0 z m 8.169,-21.337 -5.537,14.18 11.073,0 -5.536,-14.18 z" id="path36" inkscape:connector-curvature="0" style="fill:#ffffff" /><path d="m 114.929,31.533 0,-27.207 c 0,-2.16 1.755,-3.916 3.916,-3.916 2.161,0 3.916,1.756 3.916,3.916 l 0,27.208 c 0,4.118 1.553,8.913 9.183,8.913 7.63,0 9.183,-4.795 9.183,-8.913 l 0,-27.208 c 0,-2.16 1.755,-3.916 3.916,-3.916 2.161,0 3.917,1.756 3.917,3.916 l 0,27.208 c 0,7.696 -3.376,15.8 -17.015,15.8 -13.639,0 -17.016,-8.105 -17.016,-15.801 z" id="path38" inkscape:connector-curvature="0" style="fill:#ffffff" /><path d="m 191.23,7.835 0,35.176 c 0,2.16 -1.755,3.916 -3.916,3.916 -2.161,0 -3.917,-1.756 -3.917,-3.916 l 0,-35.176 -10.331,0 c -1.891,0 -3.443,-1.552 -3.443,-3.442 0,-1.89 1.553,-3.443 3.443,-3.443 l 28.494,0 c 1.891,0 3.443,1.553 3.443,3.443 0,1.89 -1.553,3.442 -3.443,3.442 l -10.33,0 z" id="path40" inkscape:connector-curvature="0" style="fill:#ffffff" /><path d="m 249.843,39.095 c 2.228,0 3.78,1.621 3.78,3.646 0,2.094 -1.553,3.646 -3.78,3.646 l -19.986,0 c -2.228,0 -3.849,-1.621 -3.849,-3.781 l 0,-38.28 c 0,-2.16 1.755,-3.916 3.916,-3.916 2.161,0 3.916,1.756 3.916,3.916 l 0,34.769 16.003,0 z" id="path42" inkscape:connector-curvature="0" style="fill:#ffffff" /><path d="m 281.175,43.011 c 0,2.16 -1.756,3.916 -3.916,3.916 -2.16,0 -3.916,-1.756 -3.916,-3.916 l 0,-38.685 c 0,-2.16 1.756,-3.916 3.916,-3.916 2.16,0 3.916,1.756 3.916,3.916 l 0,38.685 z" id="path44" inkscape:connector-curvature="0" style="fill:#ffffff" /><path d="m 313.994,20.055 12.76,0 c 1.891,0 3.443,1.553 3.443,3.443 0,1.89 -1.553,3.443 -3.443,3.443 l -12.76,0 0,12.423 17.893,0 c 1.957,0 3.51,1.555 3.51,3.512 0,1.959 -1.553,3.512 -3.51,3.512 l -21.809,0 c -2.162,0 -3.918,-1.756 -3.918,-3.916 l 0,-37.606 c 0,-2.16 1.756,-3.916 3.918,-3.916 l 21.064,0 c 1.959,0 3.512,1.553 3.512,3.51 0,1.958 -1.553,3.51 -3.512,3.51 l -17.148,0 0,12.085 z" id="path46" inkscape:connector-curvature="0" style="fill:#ffffff" /><path d="m 360.923,46.388 c -2.16,0 -3.916,-1.756 -3.916,-3.916 l 0,-37.606 c 0,-2.16 1.756,-3.916 3.916,-3.916 l 12.154,0 c 10.195,0 13.842,5.535 13.842,11.745 0,4.455 -2.229,7.832 -4.998,9.182 5.064,1.959 7.023,5.604 7.023,10.872 0,8.236 -4.93,13.639 -14.652,13.639 l -13.369,0 z m 3.916,-26.874 8.238,0 c 4.254,0 6.008,-2.43 6.008,-5.807 0,-3.51 -1.754,-5.736 -6.008,-5.736 l -8.238,0 0,11.543 z m 0,19.85 9.453,0 c 4.793,0 6.684,-2.564 6.684,-6.615 0,-4.12 -2.227,-6.618 -6.684,-6.618 l -9.453,0 0,13.233 z" id="path48" inkscape:connector-curvature="0" style="fill:#ffffff" /><path d="m 417.375,20.055 12.762,0 c 1.891,0 3.443,1.553 3.443,3.443 0,1.89 -1.553,3.443 -3.443,3.443 l -12.762,0 0,12.423 17.893,0 c 1.959,0 3.512,1.555 3.512,3.512 0,1.959 -1.553,3.512 -3.512,3.512 l -21.809,0 c -2.16,0 -3.916,-1.756 -3.916,-3.916 l 0,-37.606 c 0,-2.16 1.756,-3.916 3.916,-3.916 l 21.066,0 c 1.959,0 3.512,1.553 3.512,3.51 0,1.958 -1.553,3.51 -3.512,3.51 l -17.15,0 0,12.085 z" id="path50" inkscape:connector-curvature="0" style="fill:#ffffff" /><path d="m 477.187,10.264 c 0,7.022 -3.713,10.331 -10.061,10.331 -6.143,0 -9.924,-3.309 -9.924,-10.331 0,-7.018 3.781,-10.259 9.924,-10.259 6.348,0 10.061,3.241 10.061,10.259 z m -2.295,0 c 0,-5.938 -2.836,-8.369 -7.697,-8.369 -4.996,0 -7.697,2.43 -7.697,8.369 0,5.806 2.701,8.373 7.697,8.373 4.861,0 7.697,-2.567 7.697,-8.373 z m -9.588,1.35 0,2.972 c 0,0.539 -0.473,1.012 -1.014,1.012 -0.539,0 -1.012,-0.473 -1.012,-1.012 l 0,-8.708 c 0,-0.473 0.404,-0.876 0.877,-0.876 l 3.916,0 c 2.094,0 3.377,1.618 3.377,3.306 0,2.025 -1.215,3.307 -2.701,3.307 l 2.16,2.431 c 0.203,0.27 0.203,0.473 0.203,0.607 0,0.541 -0.404,0.945 -0.945,0.945 -0.338,0 -0.607,-0.135 -0.811,-0.404 l -2.633,-3.579 -1.417,0 z m 2.498,-1.754 c 1.08,0 1.621,-0.541 1.621,-1.553 0,-0.877 -0.541,-1.552 -1.621,-1.552 l -2.498,0 0,3.105 2.498,0 z" id="path54" inkscape:connector-curvature="0" style="fill:#ffffff" /></svg>